<svg xmlns="http://www.w3.org/2000/svg" version="1.1" xmlns:xlink="http://www.w3.org/1999/xlink" xmlns:svgjs="http://svgjs.com/svgjs" width="375" height="812" preserveAspectRatio="none" viewBox="0 0 375 812"><g mask="url(&quot;#SvgjsMask1033&quot;)" fill="none"><path d="M -213.8130510693157,272 C -176.21,333 -101.01,613.4 -25.813051069315687,577 C 49.39,540.6 86.99,69.6 162.1869489306843,90 C 237.39,110.4 307.62,641 350.1869489306843,679 C 392.75,717 370.04,359.8 375,280" stroke="rgba(51, 121, 194, 0.58)" stroke-width="2"></path><path d="M -113.31286113213189,143 C -75.71,201 -0.51,399 74.68713886786811,433 C 149.89,467 187.49,285.8 262.6871388678681,313 C 337.89,340.2 428.22,598.8 450.6871388678681,569 C 473.15,539.2 390.14,245 375,164" stroke="rgba(51, 121, 194, 0.58)" stroke-width="2"></path><path d="M -338.70720562231827,265 C -301.11,345.4 -225.91,676.2 -150.7072056223183,667 C -75.51,657.8 -37.91,259 37.2927943776817,219 C 112.49,179 157.75,463.4 225.2927943776817,467 C 292.83,470.6 345.06,283 375,237" stroke="rgba(51, 121, 194, 0.58)" stroke-width="2"></path><path d="M -334.1907405913286,280 C -296.59,355.8 -221.39,658.8 -146.19074059132862,659 C -70.99,659.2 -33.39,304.6 41.80925940867138,281 C 117.01,257.4 163.17,523.2 229.80925940867138,541 C 296.45,558.8 345.96,404.2 375,370" stroke="rgba(51, 121, 194, 0.58)" stroke-width="2"></path></g><defs><mask id="SvgjsMask1033"><rect width="375" height="812" fill="#ffffff"></rect></mask></defs></svg>