<?xml version="1.0" encoding="utf-8"?>
<!DOCTYPE svg PUBLIC "-//W3C//DTD SVG 20010904//EN" "http://www.w3.org/TR/2001/REC-SVG-20010904/DTD/svg10.dtd">
<svg version="1.0" xmlns="http://www.w3.org/2000/svg" width="632px" height="395px" viewBox="0 0 632 395" preserveAspectRatio="xMidYMid meet">
 <g fill="#172b4c">
  <path d="M422.2 347.3 c0.2 -2.2 1.1 -3.1 4.7 -4.4 2.4 -0.9 5.3 -2.8 6.3 -4.2 2.2 -3 5.9 -3.5 11.4 -1.5 3.3 1.2 4.4 3.1 4.4 8 0 4 -2.5 4.8 -15.5 4.8 l-11.6 0 0.3 -2.7z"/>
 </g>
 <g fill="#253354">
  <path d="M72.1 350.1 c-2.1 -1.3 0.5 -2.4 3.7 -1.6 2.5 0.7 2.5 0.8 0.7 1.5 -2.6 1.1 -2.8 1.1 -4.4 0.1z"/>
  <path d="M370.8 350.3 c-1 -0.2 -1.8 -1.1 -1.8 -1.9 0 -1.1 2.2 -1.4 11.5 -1.4 9.1 0 11.5 0.3 11.5 1.4 0 0.7 -1 1.6 -2.2 2 -2.6 0.7 -16.4 0.6 -19 -0.1z"/>
  <path d="M121 348 c0 -1.9 0.7 -2 9.8 -2 8.6 0 10.1 0.3 11.7 2 1.8 2 1.7 2 -9.8 2 -11 0 -11.7 -0.1 -11.7 -2z"/>
  <path d="M171 348 c0 -1.9 0.7 -2 9.8 -2 8.6 0 10.1 0.3 11.7 2 1.8 2 1.7 2 -9.8 2 -11 0 -11.7 -0.1 -11.7 -2z"/>
  <path d="M421 348.1 c0 -2.6 2.6 -5.1 6.1 -5.8 1.6 -0.3 3.4 -1.2 4 -1.9 0.6 -0.8 1.8 -1.4 2.5 -1.4 0.8 0 1.4 -0.9 1.4 -2 0 -1.6 0.7 -2 3.5 -2 3.1 0 3.5 0.3 3.5 2.5 0 2.2 0.4 2.5 3.5 2.5 3.1 0 3.6 0.3 4.2 3 0.5 3 0.6 3 6.9 3 5.7 0 6.4 0.2 6.4 2 0 1.9 -0.7 2 -21 2 -20.1 0 -21 -0.1 -21 -1.9z m20 0.1 c0 -0.5 1.1 -1.4 2.4 -2 3.3 -1.5 2.4 -4.4 -1.7 -6 -3 -1.1 -3.4 -1 -5.7 1.7 -1.4 1.6 -4.2 3.4 -6.2 4.1 -6.4 2 -5.4 3 3.1 3 4.5 0 8.1 -0.4 8.1 -0.8z"/>
  <path d="M483.2 348 c-1.2 -1.9 -1 -2 8.8 -2 9.3 0 10 0.1 10 2 0 1.8 -0.7 2 -8.8 2 -7.6 0 -8.9 -0.2 -10 -2z"/>
 </g>
 <g fill="#283964">
  <path d="M132.3 349.3 c-10.9 -0.4 -11.3 -0.4 -11.3 -2.6 0.1 -1.2 0.7 -3.3 1.5 -4.7 0.8 -1.4 1.4 -3.7 1.5 -5.2 0 -2 0.5 -2.8 1.8 -2.8 2.5 0.1 5.2 2.4 5.2 4.7 0 2.8 4.5 7.3 7.3 7.3 1.3 0 3.2 0.9 4.2 2 1 1.1 1.6 1.9 1.4 1.8 -0.2 -0.1 -5.5 -0.4 -11.6 -0.5z"/>
  <path d="M182.3 349.3 c-10.6 -0.3 -11.3 -0.5 -11.3 -2.4 0 -1.1 0.5 -2.9 1 -4 0.8 -1.3 0.7 -2.5 0 -4 -1.4 -2.5 -1.2 -2.7 2.8 -3.5 2.4 -0.5 3.2 -0.3 3.2 0.8 0 2.4 6.6 8.8 9.8 9.4 1.7 0.4 3.9 1.5 4.8 2.5 0.9 1.1 1.5 1.8 1.3 1.7 -0.2 -0.1 -5.5 -0.4 -11.6 -0.5z"/>
  <path d="M482.4 347 c-1 -1.4 -2.8 -6.1 -4 -10.5 -1.6 -6 -2.5 -8 -3.8 -7.9 -2.7 0.3 -1.8 -3.7 2.4 -10.1 2.2 -3.3 4 -6.3 4 -6.7 0 -0.5 1.7 -0.8 3.8 -0.8 l3.7 0 4.4 12.8 c2.4 7 5.4 14.8 6.7 17.5 l2.4 4.7 8.5 0 c8 0 8.5 0.1 8.5 2.1 0 2.1 -0.3 2.1 -17.3 1.7 -17.2 -0.3 -17.4 -0.3 -19.3 -2.8z"/>
  <path d="M442 347.5 c0.7 -0.8 2.1 -1.5 3.1 -1.5 2.9 0 0.5 -4.2 -3.5 -6.1 -3 -1.3 -3.5 -1.3 -4.3 0 -0.5 0.8 -1.5 1.1 -2.1 0.7 -2.2 -1.4 -1.3 -8.2 2.2 -15.7 4 -8.6 8.7 -25.5 11.6 -41.8 1.1 -6.3 2 -11.6 2 -11.7 0 -1.1 6.5 -3.4 9.5 -3.4 4.1 0 9.5 2.7 9.5 4.8 0 3.6 -4.2 35 -5.5 41.3 -0.9 4 -2.7 10.4 -4 14.3 -2.3 6.6 -2.4 7.2 -0.8 8.4 0.9 0.6 2.3 1.2 3 1.2 1.8 0 1.6 1 -0.3 2.5 -1.3 0.9 -1.4 1.6 -0.5 3.3 2.6 4.9 1.9 5.2 -10 5.2 -9.8 0 -11 -0.2 -9.9 -1.5z"/>
  <path d="M516.4 271 c0.1 -14.6 -0.5 -15.6 -10.1 -16.6 -5.8 -0.6 -6.3 -0.9 -7.3 -3.7 -0.5 -1.6 -1 -4.7 -1 -6.8 0 -3.2 -0.4 -3.8 -2.8 -4.7 -2.7 -0.9 -3.5 -2.1 -6.9 -10.2 l-1.1 -2.5 -1.1 2.8 c-1.8 4.7 1.4 13.7 4.9 13.7 1.8 0 2 0.7 2 6.9 l0 6.9 -3.1 0.6 c-1.7 0.3 -4.7 0.6 -6.6 0.6 -3 0 -3.3 -0.2 -2.4 -1.4 1 -1.2 0.9 -2 -0.4 -3.9 -1.2 -1.9 -1.4 -3.7 -0.9 -7.5 0.5 -4.1 0.2 -5.9 -1.5 -9.4 -2.4 -5 -1.8 -9 2.2 -14.8 3.6 -5.4 7 -7.3 13.7 -7.8 10.6 -0.8 19.6 5.3 26.5 17.9 2.9 5.4 3.3 8.9 2 19 -0.6 4.6 -0.3 6.5 1.4 10.4 2.5 5.6 2.6 7.4 0.7 12 -1.5 3.6 -6.6 10.5 -7.7 10.5 -0.4 0 -0.6 -5.4 -0.5 -12z"/>
  <path d="M152.5 271.8 c-0.6 -3.6 -0.9 -4 -2 -2.5 -0.7 0.9 -1.5 1.7 -1.9 1.7 -1 0 -0.6 -5.1 0.9 -11.5 0.8 -3.3 2.8 -13.6 4.5 -23 1.6 -9.3 3.4 -18.6 4 -20.5 1.4 -4.7 1.3 -6 -0.5 -6 -1 0 -1.5 -1 -1.5 -3.4 l0 -3.3 6.1 -0.7 c8.8 -0.9 10.5 -0.8 9.3 0.4 -0.7 0.7 -0.6 4.2 0.2 10.8 0.7 5.3 1.6 13.5 2 18.1 l0.7 8.5 -8.9 17.8 c-9.6 19.3 -11.6 21.4 -12.9 13.6z"/>
  <path d="M138 206.5 c0 -3.5 0 -3.5 4.5 -3.5 4.5 0 4.5 0 4.5 3.5 0 3.5 0 3.5 -4.5 3.5 -4.5 0 -4.5 0 -4.5 -3.5z"/>
  <path d="M130 205.5 c0 -3.3 0.2 -3.5 3.5 -3.5 3.3 0 3.5 0.2 3.5 3.5 0 3.3 -0.2 3.5 -3.5 3.5 -3.3 0 -3.5 -0.2 -3.5 -3.5z"/>
  <path d="M153.5 122.8 c-0.6 -1.3 -2 -2.4 -3.3 -2.6 -3.8 -0.6 -5.5 -4.4 -5 -11.2 0.4 -4.9 0.1 -6.1 -1.2 -6.5 -3.9 -1.3 -5.2 -9.3 -2 -12.5 2.8 -2.8 6.6 -2.5 10 0.8 2.2 2.2 3.5 2.7 6.1 2.4 4 -0.4 7.8 2.1 13.3 8.7 3.9 4.6 4.3 7 2.4 13.2 -1.3 4.5 -3.3 5.1 -4.2 1.4 l-0.7 -2.6 -3 3.1 c-2 2 -4.1 3 -6 3 -2.4 0 -2.9 0.4 -2.9 2.5 0 3.1 -2.2 3.3 -3.5 0.3z"/>
 </g>
 <g fill="#23407a">
  <path d="M514.8 349.3 c-3.4 -0.9 -2 -3.3 1.8 -3.3 2.9 0 3.5 0.3 3 1.6 -0.3 0.9 -0.6 1.8 -0.6 2 0 0.5 -1.8 0.4 -4.2 -0.3z"/>
  <path d="M496.6 344.3 c-1.3 -2.7 -4.3 -10.5 -6.7 -17.5 -2.4 -7.1 -4.6 -12.8 -4.9 -12.8 -0.3 0 -1.7 2.2 -3.2 4.8 -1.5 2.6 -3.9 6.1 -5.5 7.7 l-2.8 3 -0.3 -3 c-0.2 -1.6 0.1 -3.1 0.7 -3.3 0.6 -0.2 1.1 -0.9 1.1 -1.6 0 -0.7 0.8 -2.1 1.8 -3.2 3.2 -3.5 8.6 -16.7 9 -22.1 0.4 -5.2 0.5 -5.3 3.7 -5.3 3 0 3.3 0.3 4.3 4.3 2.2 9 3.5 21.3 2.9 29.3 -0.6 8.1 -0.5 8.6 2.8 15.1 4 7.9 4.2 9.3 1.5 9.3 -1.3 0 -2.7 -1.5 -4.4 -4.7z"/>
  <path d="M452 338.2 c0 -1.7 0.4 -3.2 0.8 -3.4 3 -1.2 8.4 -19.3 10.6 -35.7 3.2 -22.7 3.3 -24.8 1.7 -25.9 -1.3 -0.9 -1 -1.1 1.7 -1.1 3.9 -0.1 3.8 -0.3 1.7 18 -2.5 21.3 -7.2 41.9 -9.5 41.9 -1.8 0 -1 3 1 4.2 2.4 1.5 2.7 4.8 0.4 4.8 -0.8 0 -2.4 -0.5 -3.5 -1.1 -1.5 -0.7 -2.4 -0.7 -3.5 0.2 -1.2 0.9 -1.4 0.6 -1.4 -1.9z"/>
  <path d="M125.2 337.8 c-1.9 -1.9 -1.4 -2.8 1.8 -2.8 2.3 0 3 0.4 3 2 0 2.3 -2.9 2.7 -4.8 0.8z"/>
  <path d="M171 337.1 c-1 -2 -0.8 -2.1 3 -2.1 3.4 0 4.1 0.3 3.8 1.8 -0.5 2.6 -5.4 2.8 -6.8 0.3z"/>
  <path d="M516 277.5 c0 -2.8 0.4 -3.5 2 -3.5 2.1 0 2.4 1 1.4 4.8 -1 3.6 -3.4 2.7 -3.4 -1.3z"/>
  <path d="M153.1 275.3 c0 -1 4.7 -11 10.4 -22.3 10.3 -20.2 10.4 -20.4 10.4 -15.8 0.1 4.1 -1.2 7.5 -8.6 22.3 -6.4 12.7 -9.3 17.5 -10.5 17.5 -1.1 0 -1.8 -0.7 -1.7 -1.7z"/>
  <path d="M148 267.1 c0 -1.7 0.7 -5.8 1.5 -9.3 0.8 -3.5 2.3 -11.9 3.5 -18.8 3 -18 6 -30.3 7.8 -31.7 1 -0.8 1.1 -1.3 0.4 -1.3 -0.7 0 -1.2 -0.4 -1.2 -1 0 -0.5 1.6 -1 3.5 -1 1.9 0 3.5 0.5 3.5 1 0 0.6 -0.6 1 -1.4 1 -1.6 0 -5.6 15.4 -8.6 33.5 -2.6 15.1 -5 26.5 -6.2 28.8 -1.4 2.6 -2.8 2 -2.8 -1.2z"/>
  <path d="M515.6 259.5 c-0.6 -3.1 -1.1 -3.6 -4.6 -4.1 -3.1 -0.5 -4 -1.1 -4 -2.6 0 -1.8 0.5 -1.9 4.3 -1.3 5.2 0.8 7.4 2.9 8.2 7.8 0.6 3.3 0.5 3.7 -1.3 3.7 -1.5 0 -2.1 -0.9 -2.6 -3.5z"/>
 </g>
 <g fill="#2b468b">
  <path d="M508.7 349.3 c-8.7 -0.4 -8.8 -0.4 -10.7 -3.6 -1.1 -1.8 -2.9 -5.5 -4 -8.4 -1.7 -4.6 -1.8 -5.9 -0.8 -10.9 1.2 -6.1 -0.1 -20.6 -2.7 -28.7 l-1.3 -4.2 -0.1 4.5 c-0.2 5.1 -3.4 13.5 -8.3 21.6 -4 6.7 -16.1 20 -19 21 -1.3 0.4 -3.1 -0.2 -5.2 -1.7 -1.7 -1.2 -2.8 -1.8 -2.4 -1.4 1 1 -1.1 3.7 -2.3 2.9 -1.4 -0.8 -1.1 -4.2 0.5 -5.1 4.9 -2.9 10 -21.7 13.1 -48.5 1.3 -11.3 1.3 -12.2 -0.3 -13.5 -1.5 -1.2 -1 -1.3 3.8 -0.7 3 0.3 9.2 0.6 13.7 0.5 l8.1 0 6.1 6.5 c8 8.5 19.8 26.1 22.2 33.2 2.9 8.3 5.9 21.1 5.9 25.3 0 2.7 -0.9 4.8 -3.2 7.7 -1.8 2.3 -3.5 4 -3.8 3.9 -0.3 0 -4.5 -0.3 -9.3 -0.4z"/>
  <path d="M125.8 337.8 c-1 -0.8 -2 -4.3 -2.7 -9.1 -2.3 -16.5 -0.8 -32.1 4.3 -43.2 2.3 -5 2.4 -5.9 1.6 -15.7 -0.5 -5.7 -1.2 -19.1 -1.5 -29.8 -0.4 -10.7 -1 -22.1 -1.4 -25.2 -0.7 -5.2 -0.6 -5.8 1.1 -5.8 1.4 0 1.8 -0.8 1.8 -3.6 l0 -3.6 7.3 0.8 c3.9 0.5 12.5 0.8 19 0.7 9.1 -0.1 11.7 0.1 11.7 1.2 0 0.7 -0.8 1.5 -1.8 1.7 -1.3 0.4 -2.4 3.3 -4.4 11.9 -1.5 6.3 -3 13.2 -3.4 15.4 -3.5 23.5 -8.4 42.3 -13.9 53.9 -2.8 6 -9.4 30.9 -11.6 44.1 -1.3 7.8 -2.5 9.1 -6.1 6.3z"/>
  <path d="M165.3 326.3 c-9.2 -17.6 -11.5 -25.3 -12 -39.5 l-0.3 -11.7 10.4 -20.8 10.5 -20.8 0 11.7 c0.1 6.4 -0.7 17 -1.6 23.5 -2.7 18.3 -1.6 34.6 3.8 59.8 1 4.9 1.9 9 1.9 9.2 0 0.2 -1.5 0.3 -3.3 0.3 -3.2 0 -3.5 -0.4 -9.4 -11.7z"/>
  <path d="M516 275 c0 -4.3 0.3 -5 2 -5 1.5 0 2 0.7 2 2.8 0 4.2 -1.1 7.2 -2.6 7.2 -1 0 -1.4 -1.4 -1.4 -5z"/>
  <path d="M515.6 261.1 c-0.6 -4.4 -0.9 -4.9 -3.7 -5.5 -1.8 -0.3 -4.9 -0.6 -7 -0.6 -3.8 0 -3.9 -0.1 -3.9 -3.7 0.1 -3.2 0.3 -3.5 1.3 -2.2 0.7 0.9 3.6 1.9 6.6 2.3 7.3 1 8.8 1.9 10.1 6.4 1.5 5.7 1.3 8.2 -0.9 8.2 -1.5 0 -2 -1 -2.5 -4.9z"/>
  <path d="M479 258.2 c0 -1.2 3.5 -3 7.3 -3.7 2.1 -0.4 3.8 -1.4 4 -2.4 0.3 -0.9 0.5 0 0.6 2 0.1 3.5 -0.1 3.7 -3.6 4.3 -5.1 0.8 -8.3 0.8 -8.3 -0.2z"/>
 </g>
 <g fill="#ed7d2b">
  <path d="M210.7 349.3 c-0.4 -0.3 -0.7 -1.7 -0.7 -3 0 -1.6 1.4 -3.3 4.6 -5.6 l4.6 -3.2 23.8 0.4 23.8 0.3 1.7 -2.6 c2.1 -3.2 1.4 -9.4 -1.2 -11.3 -1 -0.8 -5 -1.3 -10.5 -1.3 l-8.8 0 0 -3.2 c0.1 -3.2 1.4 -4.3 33.6 -27.3 18.4 -13.2 35.8 -25.2 38.6 -26.7 6.7 -3.7 17.2 -3.9 23.3 -0.7 3.4 1.8 45.1 31.4 81 57.5 l10 7.2 1.7 -3.1 c3.3 -6 8.6 -24.2 11.4 -38.9 2.7 -14.1 3 -14.8 5.2 -14.8 1.3 0 2.1 0.4 1.7 0.9 -0.3 0.6 -1.4 6.1 -2.6 12.3 -2.8 16.2 -7.5 33.1 -11.5 41.6 -2 4.5 -3.2 8.3 -2.8 9.6 0.6 2.6 -3.7 7 -7.9 8 -1.5 0.4 -3.5 1.5 -4.5 2.6 -1.6 2 -3.4 2 -107.8 2 -58.3 0 -106.4 -0.3 -106.7 -0.7z"/>
  <path d="M445.6 343.5 c-0.3 -1 0.9 -2.8 3.2 -5 4.3 -4 4.8 -4.2 5.5 -1.6 0.3 1.3 -0.6 3 -2.7 5 -3.5 3.4 -5.1 3.8 -6 1.6z"/>
  <path d="M431 203 l0 -15 2.8 0 c1.6 0 3.2 0.3 3.6 0.7 0.3 0.4 1.3 0.8 2.1 0.9 0.7 0.1 5 2.4 9.5 5.1 7.8 4.6 8.1 4.9 7.8 8.2 -0.3 3.2 -1 3.9 -9.8 9.3 -6.3 3.8 -10.6 5.7 -12.7 5.8 l-3.3 0 0 -15z"/>
  <path d="M216.6 211.6 c-8.3 -5 -8.9 -5.5 -9.1 -8.8 -0.2 -3.2 0.2 -3.7 4 -5.8 3.3 -1.8 4.6 -2 6.1 -1.2 1.7 0.9 3.1 0.5 7.3 -1.9 2.8 -1.7 5.5 -3.7 5.8 -4.4 1.6 -4.2 2.3 0 2.3 13 l0 14.5 -3.7 0 c-2.7 -0.1 -6.3 -1.6 -12.7 -5.4z"/>
  <path d="M130.3 208.2 c-1.6 -1 -5.3 -11.7 -5.3 -15.4 0 -2.8 1.5 -3.9 2.3 -1.5 0.5 1.5 0.6 1.5 5.2 -6.3 3.5 -5.8 3.9 -7.1 3.7 -12.7 -0.1 -5.5 0.1 -6.3 1.7 -6.3 3.9 0 5.4 15.3 2.5 26.4 -0.9 3.3 -1.6 7.8 -1.6 10 0.1 3.8 0 3.8 -3.2 3.3 -3 -0.5 -3.3 -0.3 -2.9 1.4 0.6 2 -0.4 2.4 -2.4 1.1z"/>
  <path d="M162 204 c0 -1.7 0.7 -2 4 -2 4.5 0 5.7 2.3 1.8 3.4 -4.2 1.1 -5.8 0.7 -5.8 -1.4z"/>
  <path d="M289 153.7 c0 -2.7 0.6 -3.6 2.6 -4.6 2.2 -1 2.8 -0.9 3.8 0.4 0.9 1.3 2.8 0.5 13.1 -5.6 18.4 -10.9 19.1 -11.2 25 -10.7 4.3 0.4 7.6 1.9 21.2 10.1 8.9 5.3 16.8 9.7 17.6 9.7 0.9 0 1.8 -0.6 2 -1.2 0.3 -0.7 0.6 0.2 0.6 2 l0.1 3.2 -43 0 -43 0 0 -3.3z"/>
 </g>
 <g fill="#82b479">
  <path d="M71.5 348.9 c0.4 -0.6 2.2 -0.8 4.6 -0.4 2.1 0.4 4.5 0.3 5.4 -0.2 1.2 -0.7 0.6 -1.5 -3.1 -4.2 -2.5 -1.7 -4.4 -3.5 -4 -3.8 0.6 -0.6 2.9 0.9 8.1 5.1 2.1 1.8 3.5 2.2 4.5 1.6 1.2 -0.8 0.8 -1.6 -2.1 -4.7 -6.8 -7.2 -9.5 -12.3 -6.5 -12.3 2 0 5.7 4.7 8.5 10.7 2.1 4.6 2.8 5.2 6.1 5.8 2.1 0.4 4.6 1.3 5.7 2 1.6 1.3 -0.1 1.4 -13 1.5 -10.3 0 -14.6 -0.3 -14.2 -1.1z"/>
  <path d="M550.2 348.8 c0.3 -0.7 1.7 -1.4 3.1 -1.6 2.8 -0.3 2.9 -0.7 4.2 -8.7 1.1 -6.7 4.1 -12.5 6.5 -12.5 3.2 0 3.5 2.7 0.6 7 -1.4 2.2 -3.5 6.2 -4.5 8.9 l-2 4.8 3.9 1.3 c2.1 0.7 4.2 1 4.7 0.7 0.5 -0.3 1.5 -0.2 2.3 0.4 1 0.5 -2.2 0.9 -8.8 0.9 -7.9 0 -10.3 -0.3 -10 -1.2z"/>
  <path d="M564 341 c2.2 -4.3 4 -5.6 6.5 -4.6 2.2 0.8 0.4 3.9 -3.9 6.5 -4.6 2.9 -4.9 2.7 -2.6 -1.9z"/>
  <path d="M209.2 232.5 c-0.7 -0.8 -2.6 -1.5 -4.2 -1.5 -1.7 0 -3 -0.4 -3 -0.9 0 -1.1 5.8 -6.1 7.1 -6.1 0.5 0 0.9 -0.7 0.9 -1.5 0 -2.1 -1.4 -1.9 -5.6 1 -5.5 3.7 -8.9 3.3 -13.6 -1.5 -4.3 -4.6 -4.7 -6 -1.8 -6 3.1 0 10.1 -3.1 9.7 -4.4 -0.2 -0.7 -3.2 -1.1 -7.7 -1.2 -6.3 0 -7.5 -0.3 -9.1 -2.3 -2.4 -3 -2.5 -9.2 -0.1 -12.1 1.3 -1.7 3.2 -2.4 7.1 -2.8 l5.3 -0.5 5.8 6.2 c3.2 3.3 6.3 6.1 6.9 6.1 1.9 0 1.2 -3.1 -1.8 -7.5 -1.6 -2.4 -2.7 -4.6 -2.4 -4.9 1.1 -1.1 16.3 2.8 16.3 4.3 0 0.3 -2 1.8 -4.5 3.1 -3.4 1.9 -4.2 2.7 -3.3 3.5 1 0.7 1.2 4.7 1 15.8 -0.2 8.1 -0.6 14.7 -1 14.7 -0.4 -0.1 -1.3 -0.7 -2 -1.5z"/>
  <path d="M452 209.2 c0 -2.6 0.4 -5.2 1 -5.8 0.6 -0.6 -2.2 -2.8 -8.2 -6.4 -11.3 -6.8 -10.8 -6.6 -10.8 -4 0 1.9 -0.2 2 -1.5 1 -1.1 -0.9 -1.5 -3.5 -1.5 -10.6 0 -7.7 0.3 -9.4 1.5 -9.4 0.8 0 1.5 0.7 1.5 1.5 0 1.2 0.9 1.3 4.5 0.8 l4.5 -0.6 -3.2 6.2 c-2.2 4.3 -2.8 6.5 -2.1 7.2 1.3 1.3 4.4 -2.7 7.3 -9.6 l2 -4.8 8.6 0.6 c9.3 0.5 10.9 1.2 8 3.2 -3.9 2.9 -8.6 7.6 -8.6 8.6 0 1.7 4.2 0.3 11.8 -4.1 6.4 -3.7 7.2 -3.9 9.8 -2.8 1.6 0.6 4.1 2.3 5.7 3.7 4.5 4.2 3.3 13.1 -2.2 16.1 -1.4 0.7 -3.9 0.3 -9.2 -1.5 -4.1 -1.4 -7.7 -2.1 -8.2 -1.6 -0.9 0.9 6.9 8.1 9 8.1 2.5 0 1.3 2 -2.8 4.7 -4 2.7 -8.8 3.4 -12.1 1.9 -1.3 -0.6 -1.8 -0.4 -1.8 0.8 0 0.9 -0.7 1.6 -1.5 1.6 -1.1 0 -1.5 -1.2 -1.5 -4.8z"/>
  <path d="M253.8 153.3 c-5.1 -4.3 -30.2 -21 -32.9 -21.8 -1.4 -0.5 -1.9 -1.6 -1.9 -4.1 0 -3.2 0.2 -3.4 3.2 -3.4 4.8 0 20.4 8.6 39.1 21.6 6 4.2 6.7 5.1 6.7 8.1 0 3.3 0 3.3 -4.9 3.3 -4.2 0 -5.5 -0.5 -9.3 -3.7z"/>
  <path d="M396 153.6 c0 -3 0.6 -3.8 4.8 -6.4 2.6 -1.6 6.5 -3.9 8.7 -4.9 2.2 -1.1 6.4 -3.2 9.2 -4.7 8.9 -4.6 19.4 -8.6 22.4 -8.6 2.6 0 2.9 0.3 2.9 3.3 0 3.2 -0.3 3.4 -12.6 9.5 -6.9 3.5 -15.6 8.3 -19.4 10.7 -5.5 3.7 -7.6 4.5 -11.4 4.5 -4.6 0 -4.6 0 -4.6 -3.4z"/>
 </g>
 <g fill="#5585d7">
  <path d="M518.7 317.9 c-6.1 -10.8 -18.8 -28.9 -24.5 -35.1 l-6.2 -6.5 -5.2 0.8 c-6.1 1 -10.8 0.3 -10.8 -1.5 0 -0.9 2.5 -1.5 7.8 -1.9 4.2 -0.3 11.6 -1.8 16.5 -3.2 4.8 -1.4 9.6 -2.5 10.7 -2.5 1 0 2.2 -0.4 2.5 -1 0.3 -0.5 1.9 -1 3.6 -1 2.2 0 2.9 -0.5 2.9 -1.9 0 -3.5 -2 -7.3 -4 -7.8 -1.2 -0.3 -2 -1.4 -2 -2.5 0 -1.8 0.4 -2 3.2 -1.4 4.5 0.9 4.8 1.4 6 9.3 1.2 7.4 0.5 14.3 -1.5 14.3 -0.8 0 -0.7 0.3 0.2 0.9 1 0.6 1.2 1.9 0.7 4.6 -0.6 3 -1.1 3.6 -2.7 3.2 -1 -0.3 -1.9 0 -1.9 0.5 0 0.6 -1.1 2.6 -2.5 4.4 -1.4 1.8 -2.5 3.6 -2.5 3.9 0 0.4 1.3 2.5 2.9 4.8 4.2 6.2 11.1 23 9.9 24.2 -0.2 0.2 -1.6 -1.8 -3.1 -4.6z"/>
  <path d="M466.3 273.9 c-5.1 -2.5 -5.5 -3.9 -1 -3.9 4.2 0 6 1.2 5.5 3.9 l-0.3 2.1 -4.2 -2.1z"/>
  <path d="M480 258 c0 -1.1 2.9 -2.5 7.3 -3.4 1.5 -0.4 2.7 -1.3 2.7 -2.1 0 -0.8 0.5 -1.5 1 -1.5 0.6 0 1 1.5 1 3.4 0 3 -0.4 3.4 -3.1 4 -4.7 0.9 -8.9 0.7 -8.9 -0.4z"/>
  <path d="M136.6 228.5 c-3.1 -2.9 -3.3 -4.5 -0.6 -4.5 1.3 0 2 -0.7 2 -2 0 -1.1 0.3 -2 0.8 -2 0.4 0 1.3 0.9 2 2 0.7 1.1 0.9 2 0.4 2 -0.4 0 -0.6 1.6 -0.4 3.5 0.5 4.1 -0.5 4.4 -4.2 1z"/>
  <path d="M129.7 216.5 c-3.2 -4.6 -3.5 -5.5 -2 -5.5 1.6 0 1.8 -0.7 1.5 -4 -0.6 -5.9 2 -5.3 4 1 1.4 4.2 1.4 5 0.2 5 -0.8 0 -1.4 0.5 -1.4 1 0 0.6 0.7 1 1.5 1 1 0 1.5 1.1 1.5 3.5 0 1.9 -0.3 3.5 -0.7 3.5 -0.5 -0.1 -2.5 -2.5 -4.6 -5.5z"/>
 </g>
 <g fill="#d3a155">
  <path d="M209.7 232.8 c-0.3 -1.3 -0.6 -8.5 -0.6 -16.2 -0.1 -12.3 0 -13.8 1.5 -13.2 0.8 0.3 1.8 0.6 2 0.6 0.2 0 0.4 7 0.4 15.5 0 12.6 -0.3 15.5 -1.4 15.5 -0.8 0 -1.6 -1 -1.9 -2.2z"/>
  <path d="M452.5 204 c1 -1.1 2 -2 2.2 -2 0.1 0 0.3 0.9 0.3 2 0 1.4 -0.7 2 -2.2 2 -2 0 -2.1 -0.1 -0.3 -2z"/>
  <path d="M431 190.5 c0 -3.7 2.4 -5 3.2 -1.7 0.6 2.7 -0.2 5.2 -1.8 5.2 -0.9 0 -1.4 -1.1 -1.4 -3.5z"/>
  <path d="M288 153.5 c0 -2.9 0.4 -3.6 2.5 -4.1 4.9 -1.2 7.4 1.4 3.3 3.4 -2.3 1 -2.3 1.1 0.5 1.1 5.5 0.2 2.3 3.1 -3.4 3.1 -2.6 0 -2.9 -0.3 -2.9 -3.5z"/>
 </g>
 <g fill="#fe9843">
  <path d="M210 276 l0 -73.2 3.3 2 c1.7 1 6 3.5 9.3 5.6 3.4 2 6.4 3.6 6.7 3.6 0.3 0 0.7 -0.9 0.9 -2.1 0.3 -2.1 0.3 -2.1 2.8 -0.2 1.4 1.1 22.3 13.8 46.5 28.3 24.2 14.4 44.2 26.5 44.5 26.7 0.6 0.6 2.9 -1.1 -38.4 28.3 -32.4 23 -34.2 24.5 -31.3 25 3.1 0.5 3.1 0.6 1 1.8 -1.4 0.8 -6.6 1.2 -14.5 1.2 -16.6 0 -17.3 0.5 -16.4 10.7 0.4 5.7 0.3 7.4 -0.7 7 -0.6 -0.2 -4 1.6 -7.4 4 l-6.3 4.4 0 -73.1z m19.6 17.4 c9.8 -4 14.2 -6.2 23.5 -11.6 4.7 -2.6 7.7 -3.7 10 -3.5 1.9 0.1 3.6 -0.2 3.9 -0.8 0.5 -0.9 -3 -2.1 -17.9 -6.3 l-7.4 -2.1 0.6 4.5 c0.5 5.1 0 8.4 -1.5 8.4 -1 0 -21.8 13.9 -21.8 14.6 0 0.9 2.5 0.2 10.6 -3.2z"/>
  <path d="M244.4 282.7 c-1.3 -1.6 -0.7 -3.7 1.2 -3.7 0.8 0 1.4 1 1.4 2.5 0 2.7 -0.9 3.1 -2.6 1.2z"/>
  <path d="M446.5 343 c-0.3 -0.5 1.1 -2.5 3.2 -4.4 3.5 -3.2 3.8 -3.3 4.1 -1.4 0.6 3.6 -5.6 8.6 -7.3 5.8z"/>
  <path d="M423.5 327.1 c-10.8 -7.9 -77.5 -55.8 -82.1 -58.9 -1.1 -0.7 -1.4 -1.5 -0.9 -1.7 0.6 -0.3 21.6 -12.9 46.8 -28 25.2 -15.1 46 -27.5 46.2 -27.5 0.2 0 0.5 0.9 0.7 1.9 0.3 1.7 1.4 1.3 10.1 -4 5.4 -3.2 10 -5.9 10.2 -5.9 0.3 0 0.5 13.1 0.5 29 0 18.7 0.4 29 1 29 0.6 0 1 0.5 1 1 0 0.6 -1.1 1 -2.5 1 -2 0 -2.5 0.5 -2.5 2.5 0 2.1 -0.5 2.5 -2.8 2.5 -2.3 0 -3 -0.6 -4.1 -3.5 -0.7 -1.9 -1.7 -3.5 -2.3 -3.5 -0.5 0 -0.7 -0.7 -0.4 -1.5 0.4 -1 -0.3 -2 -2 -2.7 -1.4 -0.7 -3.2 -2.5 -4 -4 -1.6 -3 -2.8 -3.3 -10.7 -2.2 -4.4 0.6 -4.6 0.8 -4.5 3.9 0.1 1.7 -0.2 3.7 -0.5 4.2 -0.6 0.9 2 9.7 4.8 16.6 0.6 1.5 2.2 1.7 12.1 1.7 l11.4 0 -0.6 -2.5 c-0.5 -2.1 -0.3 -2.5 1.4 -2.5 3.9 0 5.1 1 4.2 3.3 -0.5 1.2 -2.3 9.2 -3.9 17.7 -1.7 8.5 -4.2 18.9 -5.6 23 -2.8 8.5 -7.7 20 -8.5 19.9 -0.3 0 -5.9 -4 -12.5 -8.8z"/>
  <path d="M333.3 257.1 c-0.3 -1.3 -1.1 -1.7 -2.4 -1.4 -1 0.3 -3.5 0.2 -5.4 -0.1 -3.2 -0.6 -3.5 -1 -3.5 -4.1 0 -2.9 0.4 -3.4 2.8 -3.8 l2.7 -0.4 -2.7 -0.2 c-2.6 -0.1 -2.8 -0.4 -2.8 -4.1 l0 -4 4 0 c2.2 0 4 0.5 4 1 0 0.6 0.5 1 1 1 0.6 0 1 -0.7 1 -1.5 0 -1.1 1.1 -1.5 3.9 -1.5 3.6 0 4 0.3 4.6 3 0.7 3.2 2.9 4 3.9 1.5 0.3 -0.9 1.9 -1.5 4.1 -1.5 3.4 0 3.5 0.1 3.5 3.6 0 2.7 -0.5 3.7 -2 4.1 -1.1 0.3 -2 0.9 -2 1.4 0 0.5 -1.3 1.5 -3 2.4 -1.6 0.8 -3.3 2.7 -3.6 4 -0.5 2.1 -1.2 2.5 -4.1 2.5 -2.6 0 -3.6 -0.5 -4 -1.9z"/>
  <path d="M140 206.1 c-3.9 -0.5 -4.5 -0.9 -4.8 -3.3 -0.2 -1.4 0.6 -6.5 1.7 -11.3 1.2 -4.8 2.1 -9.6 2.1 -10.8 0 -3.3 -3.4 -16.7 -4.2 -16.7 -0.5 0 -0.8 0.5 -0.8 1 0 2 -1.9 0.9 -2.2 -1.2 -0.2 -1.6 -1.8 -3 -5 -4.6 l-4.6 -2.3 1.4 -4.3 c3.3 -9.5 12.4 -16.5 21.5 -16.6 4.4 0 4.6 0.1 5.5 3.7 1 4 2.9 5.1 11.7 6.7 3.6 0.7 3.8 0.6 2.8 -1.3 -1.6 -2.9 -1.5 -8.6 0.2 -7.4 0.6 0.5 3.1 1.5 5.4 2.1 3 0.9 5.6 2.9 9.6 7.3 l5.5 6 -3.4 5.6 c-1.9 3.1 -3.4 6.6 -3.4 7.6 0 1.6 -0.2 1.7 -1.5 0.7 -0.9 -0.7 -1.7 -1.1 -1.9 -0.9 -0.7 0.7 -2.5 15.7 -3.2 26.6 -0.4 5.7 -1.2 10.7 -1.8 11.2 -3.1 2.4 -19.8 3.6 -30.6 2.2z"/>
  <path d="M126.6 201.8 c-0.3 -1.3 -0.6 -3.5 -0.6 -5 0 -4.6 2.5 -3.2 4.2 2.2 l1.6 5 -2.3 0 c-1.5 0 -2.5 -0.7 -2.9 -2.2z"/>
 </g>
 <g fill="#ed985f">
  <path d="M222.2 339.8 c-1.9 -1.9 -1.4 -2.8 1.8 -2.8 2.3 0 3 0.4 3 2 0 2.3 -2.9 2.7 -4.8 0.8z"/>
  <path d="M269 332.6 c0 -5.8 -0.3 -7.5 -1.6 -8 -0.9 -0.3 -5.8 -0.6 -11 -0.6 -8.7 0 -9.4 -0.1 -9.4 -2 0 -1.9 0.7 -2 10.8 -2 13.7 0 14.4 0.5 15 9.2 0.4 6.3 -0.8 10.8 -2.8 10.8 -0.6 0 -1 -3.3 -1 -7.4z"/>
  <path d="M239.8 291.2 c-0.3 -1.2 0.2 -2.4 1.3 -3.1 1.2 -0.7 1.9 -0.7 1.9 -0.1 0 0.5 0.7 1 1.5 1 0.8 0 1.5 -0.9 1.5 -1.9 0 -2 1.8 -3.1 5.1 -3.1 1 0 1.9 -0.6 1.9 -1.4 0 -1.7 2.2 -2.6 6.1 -2.6 1.6 0 2.9 -0.4 2.9 -0.9 0 -0.5 0.9 -0.7 2.1 -0.4 1.6 0.4 -0.7 2.1 -10.1 7.4 -6.7 3.8 -12.6 6.9 -13 6.9 -0.4 0 -1 -0.8 -1.2 -1.8z"/>
  <path d="M450 274 c0 -1.1 0.7 -2 1.5 -2 0.8 0 1.5 -0.6 1.5 -1.4 0 -1.7 2.2 -2.6 6.1 -2.6 4.1 0 3.7 2.3 -0.7 3.9 -1.9 0.7 -3.8 1.9 -4.1 2.7 -0.8 2.2 -4.3 1.7 -4.3 -0.6z"/>
  <path d="M319.6 268.8 c-2 -1.1 -2.1 -2.8 -0.2 -2.8 0.8 0 1.6 -0.5 1.8 -1.1 0.2 -0.6 2.5 -1.3 5.1 -1.6 3.9 -0.5 4.7 -0.3 4.7 1.1 0 0.9 -0.6 1.6 -1.3 1.6 -0.7 0 -2.9 0.8 -4.9 1.8 -2.4 1.3 -4.1 1.6 -5.2 1z"/>
  <path d="M340.5 268.1 c-0.3 -0.5 -1.9 -1.2 -3.5 -1.6 -4.3 -0.9 -3.9 -3.5 0.5 -3.5 1.9 0 3.5 0.5 3.5 1 0 0.6 0.9 1 2 1 1.3 0 2 0.7 2 2 0 2.1 -3.3 2.9 -4.5 1.1z"/>
  <path d="M418.7 258.3 c-0.4 -0.3 -0.7 -1.9 -0.7 -3.5 0 -2.1 0.5 -2.8 2 -2.8 2.1 0 2.4 1 1.4 4.8 -0.6 2.2 -1.5 2.7 -2.7 1.5z"/>
  <path d="M487 256.1 c0 -0.5 0.7 -1.1 1.5 -1.5 1 -0.3 1.5 -1.9 1.5 -4.6 0 -3.3 -0.3 -4 -2 -4 -5.6 0 -8.2 -19.2 -2.9 -22 3.1 -1.7 5.7 -0.3 7 3.9 1.5 5 4 8.2 6.7 8.4 1.9 0.1 2.2 0.7 2.2 4.4 0 5.3 2.4 11.3 4.4 11.3 0.9 0 1.6 0.7 1.6 1.5 0 1 -1.1 1.5 -3.5 1.5 -2.8 0 -3.6 -0.4 -4.1 -2.4 -0.5 -2.1 -0.8 -2.2 -3 -1.2 -1.5 0.7 -2.4 2 -2.4 3.4 0 1.9 -0.5 2.2 -3.5 2.2 -1.9 0 -3.5 -0.4 -3.5 -0.9z m5.4 -14.7 c2.2 -0.8 2 -4.1 -0.2 -4.6 -1.1 -0.3 -2.3 -2.2 -3 -4.7 -1.4 -4.6 -3.2 -4.6 -3.2 0 0 3.5 2.5 9.9 3.9 9.9 0.5 0 1.6 -0.3 2.5 -0.6z"/>
  <path d="M136.8 228.2 c-1.4 -1.5 -3 -4.2 -3.6 -5.9 -0.6 -1.8 -2.7 -5.4 -4.6 -7.9 -4 -5.1 -4.4 -6.4 -2.1 -6.4 1.8 0 1.8 -0.3 0 -6.4 -1.5 -4.9 -2 -11.6 -0.9 -11.6 1.2 0 2.9 2.6 3.2 4.8 0.7 4.8 7.2 21.4 9.4 24.1 2.5 2.9 3.7 10.4 1.9 11.5 -0.4 0.3 -1.9 -0.7 -3.3 -2.2z"/>
  <path d="M147.8 206.3 c2.3 -0.2 5.9 -0.2 8 0 2 0.2 0.1 0.4 -4.3 0.4 -4.4 0 -6.1 -0.2 -3.7 -0.4z"/>
  <path d="M293.8 154.3 c1.2 -0.2 3 -0.2 4 0 0.9 0.3 -0.1 0.5 -2.3 0.4 -2.2 0 -3 -0.2 -1.7 -0.4z"/>
  <path d="M292 150.4 c0 -1.5 0.6 -2.4 1.5 -2.4 0.8 0 1.5 0.2 1.5 0.4 0 0.2 0.3 1.1 0.6 1.9 0.3 0.9 -0.3 1.6 -1.5 2 -1.7 0.4 -2.1 0 -2.1 -1.9z"/>
  <path d="M156.8 132.1 c-3.2 -2.8 -3.3 -3 -3 -9.8 l0.3 -6.9 4 -1.1 c3.9 -1 4 -1 2.2 1 -1.8 1.9 -1.8 2 0.5 0.6 1.3 -0.8 3.7 -3.6 5.4 -6.2 3.4 -5.3 4.4 -5.2 5.9 0.9 1.3 6 1.1 7.4 -1.1 7.4 -1.1 0 -2 -0.6 -2 -1.4 0 -2.1 -3.7 -0.8 -4.3 1.4 -0.3 1.1 -1.9 2.2 -3.7 2.7 l-3.2 0.8 5.1 1.9 c4.7 1.6 7 4.6 3.7 4.6 -0.8 0 -1.7 1.5 -2 3.5 -0.9 4.4 -3.3 4.6 -7.8 0.6z"/>
 </g>
 <g fill="#7599f1">
  <path d="M519 317.7 c-1.3 -2.3 -5.3 -8.7 -8.9 -14.2 -3.6 -5.5 -6.7 -10.3 -6.9 -10.6 -0.1 -0.3 1.5 -2.3 3.6 -4.5 3.8 -4 7.2 -12.1 7.2 -17.1 0 -2 -0.3 -2.3 -1.4 -1.4 -0.7 0.6 -2.6 1.3 -4.2 1.5 -1.6 0.2 -6.3 1.3 -10.4 2.5 -9.1 2.6 -10 2.6 -10 0.2 0 -1.4 1 -2.1 3.7 -2.6 5.2 -0.9 5.5 -1.3 3.7 -4 -1.5 -2.3 -1.6 -2.3 -5.9 -0.9 -2.3 0.8 -6.7 1.4 -9.6 1.2 -4.7 -0.3 -5.5 -0.7 -6.9 -3.1 -1.4 -2.6 -1.4 -2.9 1 -4.7 2.6 -2 5.2 -3 12.8 -5 3.1 -0.8 4.2 -1.5 3.8 -2.6 -0.3 -0.8 0.1 -1.4 0.8 -1.4 0.8 0 1.6 0.5 1.8 1.2 0.3 0.8 1.6 0.4 4.3 -1.2 3.3 -2 3.9 -2.2 4.9 -0.8 0.7 0.9 3.3 1.7 6.9 2 8.8 0.7 9.2 1.5 9.2 16.1 0 6.7 -0.6 17 -1.4 22.8 l-1.4 10.7 3.1 9.8 c1.7 5.4 3 10 2.8 10.1 -0.1 0.2 -1.3 -1.6 -2.6 -4z"/>
  <path d="M470.8 275.9 c-2.9 -1.6 -2.1 -2.9 1.7 -2.9 2.8 0 3.5 0.4 3.5 2 0 2.2 -2.4 2.6 -5.2 0.9z"/>
 </g>
 <g fill="#a8d2a0">
  <path d="M224 176.1 c0 -0.5 0.6 -1.2 1.3 -1.5 0.9 -0.5 0.9 -0.7 -0.2 -1.2 -3.7 -1.7 -9.4 -8.3 -12.1 -13.9 -1.7 -3.5 -3 -6.8 -3 -7.3 0 -0.7 3.2 -1.1 8.3 -1.1 5.3 0.1 9.7 -0.5 12 -1.5 7 -2.9 4.2 -4.7 -11.2 -7.2 -5.3 -0.8 -10.6 -2.2 -11.8 -3 -3.5 -2.2 -4.9 -8.5 -3.5 -15.1 2.2 -10.4 5.7 -13.4 16.8 -14.1 5.4 -0.3 7.4 -0.8 7.4 -1.8 0 -0.8 1.1 -1.4 2.6 -1.4 2.1 0 2.4 0.3 1.5 1.4 -0.9 1 -0.7 1.6 0.5 2.7 0.8 0.7 2.9 4 4.6 7.3 1.7 3.4 5 9.1 7.5 12.9 9.4 14.2 11.5 9.3 3.9 -9.2 -1.4 -3.5 -2.3 -6.7 -2 -7 1.4 -1.4 25.4 9.7 28.2 13.1 0.7 0.9 0.7 4.1 -0.1 10.4 -1.2 10.4 -0.6 14.4 2.3 14.4 2.1 0 2.8 -3.3 3.3 -15 l0.2 -6.5 6.8 6.5 c4.1 4 7.1 7.8 7.6 9.8 0.9 2.9 0.7 3.3 -1.7 4.7 l-2.7 1.4 4 0.1 c4 0.1 4 0.1 1.5 1.5 -2 1.1 -8.3 1.4 -32.2 1.5 l-29.8 0 0 8.3 c0 6.9 -0.3 8.7 -1.8 10 -2 1.8 -8.2 2.4 -8.2 0.8z m39 -24.2 c-7 -5.6 -37.5 -24.5 -35 -21.7 0.3 0.3 5.9 4.2 12.5 8.5 6.6 4.4 14 9.6 16.3 11.6 2.4 2.1 5.4 3.7 6.5 3.7 2.1 0 2.1 -0.1 -0.3 -2.1z"/>
  <path d="M431 166.5 l0 -9.5 -30 0 c-26.3 0 -30 -0.2 -30 -1.5 0 -0.9 0.7 -1.8 1.5 -2.1 0.9 -0.4 1.5 -1.9 1.5 -4.1 0 -4.4 1.2 -6.8 6.4 -12.1 3.8 -4 9.3 -7.8 10.1 -7 0.2 0.2 -0.1 3.8 -0.7 7.9 -1.2 8.4 -0.5 14.9 1.6 14.9 1.9 0 2.8 -4.1 3.1 -15.3 0.1 -5.4 0.7 -10.2 1.1 -10.6 2.9 -2.5 25.7 -10.1 26.9 -8.9 0.2 0.2 -1.6 4.3 -4.1 9.2 -4.3 8.7 -5.4 12.6 -3.3 12.6 1.5 0 7.4 -6.6 13.6 -15.3 6.1 -8.6 7.5 -9.3 16 -8.3 11.3 1.3 14.8 5.2 14.8 16.3 0 6.4 -0.3 7.5 -2.5 9.7 -2.2 2.3 -3.8 2.7 -13.9 3.6 -6.3 0.5 -11.9 1.4 -12.4 1.9 -2.3 2.3 7.7 6.1 16 6.1 2.9 0 5.3 0.3 5.3 0.6 0 1.1 -4.2 7.8 -7.7 12.1 -1.8 2.3 -4.9 4.8 -6.8 5.4 -1.9 0.7 -3.5 1.9 -3.5 2.6 0 0.7 -0.7 1.3 -1.5 1.3 -1.2 0 -1.5 -1.7 -1.5 -9.5z m-23.1 -16.2 c3.1 -2.1 11 -6.6 17.6 -10 6.6 -3.4 11.7 -6.2 11.3 -6.3 -2.9 -0.1 -30.3 13.8 -36.3 18.4 -1.9 1.5 -1.9 1.5 -0.1 1.6 1 0 4.4 -1.7 7.5 -3.7z"/>
 </g>
 <g fill="#ffb17d">
  <path d="M222.8 339.9 c-2.5 -1.4 -2.3 -4.9 0.2 -4.9 1.6 0 2 0.7 2 3 0 1.7 -0.1 3 -0.2 3 -0.2 0 -1.1 -0.5 -2 -1.1z"/>
  <path d="M268 323.5 c0 -2.7 0.1 -2.8 2.4 -1.9 2.4 0.9 2 4.4 -0.4 4.4 -1.5 0 -2 -0.7 -2 -2.5z"/>
  <path d="M222 323 c0 -2.1 4.4 -3 15.2 -3 12.5 0 15.8 0.6 15.8 2.6 0 1.1 -3 1.4 -15.5 1.4 -9.3 0 -15.5 -0.4 -15.5 -1z"/>
  <path d="M260 280 c0 -2.1 1.6 -2.6 3.9 -1.1 1.1 0.7 1 1.1 -0.7 2 -2.8 1.5 -3.2 1.4 -3.2 -0.9z"/>
  <path d="M449.4 275.2 c-0.7 -0.4 -1.9 -3.1 -2.8 -6 -1.5 -5.2 -1.5 -5.3 0.4 -4.7 3.4 1.1 2.2 -0.4 -2 -2.5 -2.2 -1.1 -4 -2.7 -4 -3.5 0 -0.7 -0.9 -1.7 -2 -2 -1.5 -0.5 -2 -1.5 -2 -4.1 0 -3.4 1.6 -4.6 2.6 -1.9 0.3 0.8 2 2.3 3.7 3.4 1.8 1.1 3.9 2.5 4.7 3 0.8 0.6 3.2 1.8 5.3 2.7 2.1 0.9 3.6 2.2 3.4 2.9 -0.3 0.6 1 2 2.9 3 4.2 2.2 5 6.5 1.1 5.8 -1.5 -0.3 -3.4 0.4 -5.4 2.1 -3.3 2.8 -4.1 3 -5.9 1.8z"/>
  <path d="M319 267 c0 -1.3 0.7 -2 2 -2 1.1 0 2 -0.4 2 -1 0 -0.5 1.6 -1 3.5 -1 4.4 0 4.8 2.6 0.5 3.5 -1.6 0.4 -3.2 1.1 -3.5 1.6 -1.2 1.8 -4.5 1 -4.5 -1.1z"/>
  <path d="M343 266.6 c0 -1.7 0.7 -2.7 2.2 -3.2 1.2 -0.3 2.8 -1.3 3.6 -2 0.7 -0.8 2.4 -1.4 3.8 -1.4 1.5 0 2.4 -0.6 2.4 -1.5 0 -0.9 0.9 -1.5 2.5 -1.5 1.6 0 2.5 -0.6 2.5 -1.5 0 -0.8 0.7 -1.5 1.5 -1.5 0.8 0 1.5 -0.4 1.5 -0.9 0 -0.5 1 -1.3 2.2 -1.7 1.2 -0.3 2.8 -1.3 3.6 -2 0.7 -0.8 2.4 -1.4 3.8 -1.4 1.5 0 2.4 -0.6 2.4 -1.5 0 -0.9 0.9 -1.5 2.5 -1.5 1.6 0 2.5 -0.6 2.5 -1.5 0 -0.9 0.9 -1.5 2.5 -1.5 1.6 0 2.5 -0.6 2.5 -1.5 0 -0.9 0.9 -1.5 2.5 -1.5 1.6 0 2.5 -0.6 2.5 -1.5 0 -0.9 0.9 -1.5 2.5 -1.5 1.6 0 2.5 -0.6 2.5 -1.5 0 -0.9 0.9 -1.5 2.5 -1.5 1.6 0 2.5 -0.6 2.5 -1.5 0 -0.9 0.9 -1.5 2.5 -1.5 1.6 0 2.5 -0.6 2.5 -1.5 0 -0.9 0.9 -1.5 2.5 -1.5 1.6 0 2.5 -0.6 2.5 -1.5 0 -0.9 0.9 -1.5 2.5 -1.5 1.6 0 2.5 -0.6 2.5 -1.5 0 -0.9 0.9 -1.5 2.5 -1.5 1.6 0 2.5 -0.6 2.5 -1.5 0 -0.9 0.9 -1.5 2.5 -1.5 1.6 0 2.5 -0.6 2.5 -1.5 0 -0.9 0.9 -1.5 2.5 -1.5 1.6 0 2.5 -0.6 2.5 -1.5 0 -0.8 0.9 -1.5 2 -1.5 1.2 0 2 0.7 2 1.8 -0.1 1.2 -13.4 9.7 -44.8 28.5 -24.6 14.7 -45.1 26.7 -45.5 26.7 -0.4 0 -0.7 -1.1 -0.7 -2.4z"/>
  <path d="M466.3 267.8 c-2.3 -0.8 -3.3 -1.7 -3.3 -3.1 0 -1.2 0.5 -1.7 1.3 -1.4 0.8 0.3 3.4 -0.4 5.8 -1.4 l4.3 -2 1.9 2.5 c1 1.5 2.7 2.6 3.8 2.6 1.2 0 1.9 0.7 1.9 2 0 1.8 -0.6 2 -6.2 1.9 -3.5 -0.1 -7.8 -0.6 -9.5 -1.1z"/>
  <path d="M273.5 241.2 l-43 -25.8 -0.3 -11.4 c-0.3 -12.8 0.1 -16 2.3 -16 1.2 0 1.5 2.1 1.5 12.5 0 7.7 0.4 12.5 1 12.5 0.6 0 1 0.7 1 1.5 0 0.9 0.9 1.5 2.5 1.5 1.6 0 2.5 0.6 2.5 1.5 0 0.9 0.9 1.5 2.5 1.5 1.6 0 2.5 0.6 2.5 1.5 0 0.9 0.9 1.5 2.5 1.5 1.6 0 2.5 0.6 2.5 1.5 0 0.9 0.9 1.5 2.5 1.5 1.6 0 2.5 0.6 2.5 1.5 0 0.9 0.9 1.5 2.5 1.5 1.6 0 2.5 0.6 2.5 1.5 0 0.9 0.9 1.5 2.5 1.5 1.6 0 2.5 0.6 2.5 1.5 0 0.9 0.9 1.5 2.5 1.5 1.6 0 2.5 0.6 2.5 1.5 0 0.9 0.9 1.5 2.5 1.5 1.6 0 2.5 0.6 2.5 1.5 0 0.9 0.9 1.5 2.5 1.5 1.6 0 2.5 0.6 2.5 1.5 0 0.9 0.9 1.5 2.5 1.5 1.6 0 2.5 0.6 2.5 1.5 0 0.9 0.9 1.5 2.4 1.5 1.4 0 3.1 0.6 3.8 1.4 0.8 0.7 2.4 1.7 3.6 2 1.2 0.4 2.2 1.1 2.2 1.6 0 0.4 1.1 1.1 2.5 1.4 1.4 0.4 2.5 1.1 2.5 1.6 0 0.6 0.7 1 1.5 1 0.8 0 1.5 0.7 1.5 1.5 0 0.9 0.9 1.5 2.4 1.5 1.4 0 3.1 0.6 3.8 1.4 0.8 0.7 2.4 1.7 3.6 2 1.5 0.5 2.2 1.5 2.2 3.2 0 1.3 -0.3 2.4 -0.7 2.4 -0.5 0 -20.1 -11.6 -43.8 -25.8z"/>
  <path d="M418.8 258.8 c0 -0.7 -0.2 -1.7 -0.3 -2.3 -0.2 -0.5 -0.3 -1.7 -0.4 -2.7 -0.1 -1.1 -0.7 -1.5 -2 -1.1 -2.2 0.6 -3.8 -1.4 -2.3 -2.9 0.9 -0.9 16.2 -3.6 21 -3.8 0.6 0 1.2 0.9 1.2 2 0 1.6 -0.7 2 -3.2 2 -5.2 0 -7.8 1.1 -7.8 3.1 0 1.1 -0.5 1.6 -1.4 1.3 -0.9 -0.3 -1.7 0.6 -2.4 2.5 -1.1 3.2 -2.1 4 -2.4 1.9z"/>
  <path d="M333 257.6 c0 -1 -1.2 -1.2 -4.9 -0.8 -2.6 0.2 -5.1 0 -5.4 -0.5 -1 -1.6 -1.8 -12.8 -1 -13.9 0.4 -0.6 4.7 -1.4 9.6 -1.8 7.5 -0.6 8.7 -0.5 8.7 0.8 0 1.2 1.1 1.6 5 1.6 l5 0 0 3.5 c0 2.5 -0.4 3.5 -1.5 3.5 -1.5 0 -6.5 4.3 -6.5 5.5 0 0.4 -0.6 1.3 -1.4 2.1 -1.9 1.8 -7.6 1.9 -7.6 0z m4.8 -2.8 c-0.3 -0.7 0.1 -1.9 0.9 -2.6 0.7 -0.7 1.2 -2.3 1.2 -3.5 -0.1 -2 -0.2 -2.1 -0.6 -0.2 -0.3 1.1 -1.2 2.8 -2 3.7 -0.8 0.9 -1.2 2.2 -0.8 2.7 0.9 1.5 1.8 1.4 1.3 -0.1z m-6.8 -5.7 c0 -1.1 0.3 -1.2 0.8 -0.4 0.5 0.9 1.2 0.6 2.1 -1 1.3 -2 1.3 -2.1 -0.2 -0.8 -1.5 1.2 -1.7 1.1 -1.8 -1 -0.1 -1.9 -0.3 -1.6 -1.1 1.1 -0.5 1.9 -1.5 4.2 -2.1 5 -1 1.3 -1 1.3 0.6 0.1 0.9 -0.7 1.7 -2.1 1.7 -3z m6.3 -4.8 c-0.7 -0.2 -0.9 -1.1 -0.6 -1.9 0.3 -0.8 0 -1.4 -0.6 -1.4 -1.5 0 -1.4 3.7 0.2 4.3 0.6 0.2 1.4 0.2 1.7 -0.1 0.3 -0.2 0 -0.7 -0.7 -0.9z"/>
  <path d="M489.5 257 c-0.4 -0.6 -0.2 -1.7 0.4 -2.4 0.6 -0.7 0.9 -2.1 0.5 -3 -0.4 -1 0 -1.8 1.2 -2.2 2.2 -0.8 6.4 -4.4 6.4 -5.5 0 -0.3 -1.9 0 -4.3 0.9 -2.4 0.9 -5.1 1.3 -6.1 0.9 -2.6 -1 -4.9 -7.5 -4.7 -13.6 0.1 -6.3 1.4 -8.3 5 -7.9 2 0.2 2.9 1.2 4.1 4.5 1.9 5 4.7 8.3 7.2 8.3 1.5 0 1.8 0.5 1.3 2 -0.4 1.1 0.1 4.6 1 7.7 1.8 6.3 2 6 -5 9.3 -4.6 2.2 -6.1 2.4 -7 1z"/>
  <path d="M136.1 227.4 c-1.2 -1.5 -2.1 -3.4 -2.1 -4.3 0 -0.9 -3.1 -5.9 -6.9 -11.2 -10.5 -14.6 -13.1 -19.7 -13.1 -25.5 0 -5.7 2 -14.1 5.5 -23.4 3.8 -9.8 3.6 -9.6 8.7 -7.6 2.3 0.9 5.2 2.3 6.2 3.1 1.9 1.4 1.8 1.6 -0.7 7.2 -1.4 3.2 -3.8 9.3 -5.2 13.7 l-2.6 7.8 4.7 14.5 c2.6 8.1 5.6 15.5 6.7 16.6 1.8 1.8 2.5 3.9 3 9.1 0.3 3 -1.9 3 -4.2 0z"/>
  <path d="M193.9 179.4 c-8.5 -4.5 -17.9 -12.8 -17.9 -15.7 0 -2.5 5.6 -12.7 7 -12.7 0.5 0 3.6 3.3 6.9 7.3 10.8 13.3 13.1 14.5 29.6 16.3 5.2 0.5 6.4 0.3 8.8 -1.6 1.5 -1.2 2.7 -3 2.7 -4.1 0 -1.4 0.7 -1.9 3 -1.9 2.7 0 3 0.3 3 3.4 0 1.8 -0.9 4.5 -2 5.9 -1.1 1.4 -2 3.2 -2 4.1 0 0.9 -0.4 1.6 -1 1.6 -0.5 0 -1 -0.4 -1 -0.9 0 -1.9 -3.3 -1.9 -11.7 -0.1 -13.1 2.9 -17.5 2.6 -25.4 -1.6z"/>
  <path d="M369 155.6 c0 -1.5 3.5 -2.7 5.6 -1.9 2.9 1.1 1.5 3.3 -2.1 3.3 -2.3 0 -3.5 -0.5 -3.5 -1.4z"/>
  <path d="M155.2 148.5 c-3 -0.7 -5.8 -1.7 -6.3 -2.2 -0.5 -0.5 -1.3 -3 -1.8 -5.6 -0.7 -4.1 -0.6 -4.7 0.9 -4.7 3.7 0 6.1 -6 6.1 -15.2 0 -5.6 0.1 -5.8 2.6 -5.8 2.1 0 2.4 0.2 1.3 1.5 -0.7 0.8 -0.8 1.5 -0.3 1.5 1.9 0 6.6 -4.4 9.3 -8.7 l2.8 -4.3 1 2.7 c2.3 6 2.4 11 0.3 15.7 -2.2 5.2 -4.3 5.8 -10.8 3.1 -2 -0.8 -3.8 -1.3 -4 -1.1 -0.2 0.2 1.4 1.9 3.7 3.8 2.3 2 4 4.4 4 5.6 0 1.1 0.5 2.4 1.1 2.8 1.4 0.8 4.8 8.4 4.9 10.7 0 1.4 -0.9 1.7 -4.7 1.6 -2.7 0 -7.2 -0.6 -10.1 -1.4z"/>
 </g>
 <g fill="#ffbe94">
  <path d="M222.6 339.4 c-2.3 -2.2 -2 -3.4 0.9 -3.4 2 0 2.5 0.5 2.5 2.5 0 2.9 -1.2 3.2 -3.4 0.9z"/>
  <path d="M266 339 c0 -1.6 0.7 -2 3 -2 3.2 0 3.7 0.9 1.8 2.8 -1.9 1.9 -4.8 1.5 -4.8 -0.8z"/>
  <path d="M221 325.2 c0 -1.9 1.8 -4.2 3.2 -4.2 0.4 0 0.8 1.4 0.8 3 0 2.3 -0.4 3 -2 3 -1.3 0 -2 -0.7 -2 -1.8z"/>
  <path d="M244 288.5 c0 -2.2 0.4 -2.5 3.5 -2.5 2.8 0 3.5 -0.4 3.5 -2 0 -1.6 0.7 -2 3.5 -2 2.8 0 3.5 -0.4 3.5 -2 0 -1.4 0.7 -2 2.3 -2 5.6 0.1 4.4 1.8 -5.3 7.3 -5.5 3.1 -10.2 5.7 -10.5 5.7 -0.3 0 -0.5 -1.1 -0.5 -2.5z"/>
  <path d="M462.3 271.5 c-5.9 -3.1 -11.4 -6.2 -12.3 -6.9 -2.9 -2.6 -6.4 -3.8 -11.4 -4.3 -5.3 -0.5 -10.6 -2.9 -10.6 -4.9 0 -0.7 1.6 -1.8 3.5 -2.4 4.1 -1.3 4.6 -3 1 -3 -3.6 0 -3.1 -2.7 0.7 -3.5 2.6 -0.6 3.5 -0.3 5 1.5 1 1.2 1.8 2.8 1.8 3.6 0 0.8 0.4 1.4 0.9 1.4 0.5 0 2.2 1.1 3.8 2.3 2.8 2.4 12.6 6.2 23.8 9.2 6.7 1.9 10.4 1.6 20.9 -1.8 6 -1.9 7 -2 7.4 -0.7 0.3 0.8 2.3 3.3 4.4 5.4 2.1 2.1 3.7 4.1 3.5 4.3 -1.3 1.2 -20.9 5.3 -25.8 5.3 -5.2 0 -7.2 -0.7 -16.6 -5.5z"/>
  <path d="M317.8 267.6 c-2.6 -2 -2.2 -2.6 1.8 -2.6 2.8 0 3.5 0.3 3.2 1.7 -0.4 2.2 -2.8 2.7 -5 0.9z"/>
  <path d="M340 267.5 c-1.4 -0.8 -4.9 -1.4 -7.7 -1.5 -4.6 0 -5.3 -0.3 -5.3 -2 0 -1.7 0.7 -2 5 -2 2.8 0 5 0.5 5 1 0 0.6 1.6 1 3.5 1 3.1 0 3.5 0.3 3.5 2.5 0 2.9 -0.5 3 -4 1z"/>
  <path d="M353 260.5 c0 -2 0.5 -2.5 2.5 -2.5 1.6 0 2.5 -0.6 2.5 -1.5 0 -1 1.1 -1.5 3.5 -1.5 1.9 0 3.5 0.3 3.5 0.8 0 0.7 -10.2 7.2 -11.4 7.2 -0.3 0 -0.6 -1.1 -0.6 -2.5z"/>
  <path d="M303.8 259.2 c-3.7 -2.2 -3.5 -3.2 0.7 -3.2 3.1 0 3.5 0.3 3.5 2.5 0 2.9 -0.6 3 -4.2 0.7z"/>
  <path d="M494.1 256.6 c1 -0.9 6.9 -3.6 6.9 -3.2 0 0.6 -5.5 3.6 -6.6 3.6 -0.4 0 -0.5 -0.2 -0.3 -0.4z"/>
  <path d="M329.1 252.5 c1.3 -1.3 2.9 -2.5 3.5 -2.5 0.7 0 1.4 -0.9 1.7 -2 0.5 -2.1 3.1 -2.7 4.2 -1 0.4 0.6 0.4 1.8 0 2.8 -0.5 1.4 -0.7 1.4 -1.5 0.2 -0.8 -1.2 -1 -0.9 -1 1.1 0 2.9 -1.5 3.9 -6.2 3.9 l-3 0 2.3 -2.5z"/>
  <path d="M418 252.8 c0 -0.4 -1 -0.7 -2.2 -0.5 -3.2 0.3 -3 -2.5 0.2 -3.3 1.4 -0.4 4.9 -1 7.8 -1.4 4.8 -0.6 5.2 -0.5 5.2 1.4 0 1.5 -0.7 2 -2.5 2 -1.4 0 -2.5 0.6 -2.5 1.3 0 0.8 -1.2 1.4 -3 1.4 -1.6 0 -3 -0.4 -3 -0.9z"/>
  <path d="M326.1 250.9 c-0.7 -1.8 -1 -1.9 -1 -0.6 -0.1 1 -0.9 1.7 -2.1 1.7 -1.8 0 -2 -0.7 -2 -5.5 0 -3 0.5 -5.5 1 -5.5 0.6 0 1 -0.7 1 -1.5 0 -1.7 6.5 -2.2 7.5 -0.5 0.9 1.5 2.5 1.2 2.5 -0.6 0 -1.1 0.9 -1.4 3.7 -1.2 3.3 0.3 3.8 0.7 4.6 3.8 0.5 1.9 1.2 2.9 1.4 2.3 0.3 -0.7 2 -1.3 3.9 -1.3 3.1 0 3.4 0.3 3.4 2.9 0 3.9 -0.9 6.1 -2.6 6.1 -0.8 0 -1.4 0.5 -1.4 1 0 0.6 -1.6 1 -3.5 1 -1.9 0 -3.5 -0.3 -3.5 -0.7 0 -0.5 2 -2.1 4.5 -3.6 2.5 -1.6 4.8 -3.4 5.2 -3.9 0.3 -0.6 -1.5 0.3 -4 2.1 -4.4 3 -4.7 3 -4.7 1.1 0 -1.1 -0.4 -2 -1 -2 -0.5 0 -1.2 -1.1 -1.6 -2.5 -0.8 -3.4 -2 -3.2 -2.7 0.5 -0.4 1.7 -1.2 3 -1.8 3 -0.6 0 -0.9 -0.7 -0.5 -1.5 0.3 -0.8 0.2 -1.5 -0.3 -1.5 -0.5 0 -1.2 1.5 -1.5 3.4 -0.4 1.9 -1.3 3.9 -2.1 4.6 -1.2 1 -1.7 0.8 -2.4 -1.1z"/>
  <path d="M373 248.5 c0 -2 0.5 -2.5 2.5 -2.5 1.6 0 2.5 -0.6 2.5 -1.5 0 -0.9 0.9 -1.5 2.5 -1.5 1.6 0 2.5 -0.6 2.5 -1.5 0 -0.9 0.9 -1.5 2.5 -1.5 1.6 0 2.5 -0.6 2.5 -1.5 0 -0.9 0.9 -1.5 2.5 -1.5 1.6 0 2.5 -0.6 2.5 -1.5 0 -0.9 0.9 -1.5 2.5 -1.5 1.6 0 2.5 -0.6 2.5 -1.5 0 -0.9 0.9 -1.5 2.5 -1.5 1.6 0 2.5 -0.6 2.5 -1.5 0 -0.9 0.9 -1.5 2.5 -1.5 1.6 0 2.5 -0.6 2.5 -1.5 0 -0.9 0.9 -1.5 2.5 -1.5 1.6 0 2.5 -0.6 2.5 -1.5 0 -0.9 0.9 -1.5 2.5 -1.5 1.6 0 2.5 -0.6 2.5 -1.5 0 -0.9 0.9 -1.5 2.5 -1.5 1.6 0 2.5 -0.6 2.5 -1.5 0 -0.9 0.9 -1.5 2.5 -1.5 1.6 0 2.5 -0.6 2.5 -1.5 0 -1 1 -1.5 3.1 -1.5 2 0 2.9 0.4 2.7 1.2 -0.4 1.2 -58.4 36.7 -60 36.8 -0.5 0 -0.8 -1.1 -0.8 -2.5z"/>
  <path d="M258.8 232.2 c-15.3 -9.2 -27.8 -17 -27.8 -17.4 0 -0.5 1.6 -0.8 3.5 -0.8 2.4 0 3.5 0.5 3.5 1.5 0 0.9 0.9 1.5 2.5 1.5 1.6 0 2.5 0.6 2.5 1.5 0 0.9 0.9 1.5 2.5 1.5 1.6 0 2.5 0.6 2.5 1.5 0 0.9 0.9 1.5 2.5 1.5 1.6 0 2.5 0.6 2.5 1.5 0 0.9 0.9 1.5 2.5 1.5 1.6 0 2.5 0.6 2.5 1.5 0 0.9 0.9 1.5 2.5 1.5 1.6 0 2.5 0.6 2.5 1.5 0 0.9 0.9 1.5 2.5 1.5 1.6 0 2.5 0.6 2.5 1.5 0 0.9 0.9 1.5 2.5 1.5 1.6 0 2.5 0.6 2.5 1.5 0 0.9 0.9 1.5 2.5 1.5 1.6 0 2.5 0.6 2.5 1.5 0 0.9 0.9 1.5 2.5 1.5 1.6 0 2.5 0.6 2.5 1.5 0 0.9 0.9 1.5 2.5 1.5 2 0 2.5 0.5 2.5 2.5 0 1.4 -0.3 2.5 -0.7 2.5 -0.5 -0.1 -13.3 -7.6 -28.5 -16.8z"/>
  <path d="M484.7 242.4 c-1.1 -1.2 0.3 -2.4 2.9 -2.4 1.6 0 2.4 0.5 2.2 1.3 -0.5 1.3 -4 2.2 -5.1 1.1z"/>
  <path d="M230.8 192.3 c-0.6 -2.8 0.2 -5.3 1.8 -5.3 0.9 0 1.4 1.1 1.4 3.5 0 3.7 -2.4 5 -3.2 1.8z"/>
  <path d="M230 177.1 c0 -1.1 0.4 -2.3 1 -2.6 0.5 -0.3 1.5 -1.5 2.1 -2.7 1.2 -2.3 0.2 -2 -3.6 1.1 -2 1.6 -2 1.5 -0.2 -0.5 0.9 -1.1 1.7 -2.6 1.7 -3.2 0 -0.7 1.4 -1.2 3 -1.2 2.8 0 3 0.3 3 3.5 0 1.9 -0.4 3.5 -0.9 3.5 -0.5 0 -1.1 0.9 -1.4 2 -0.7 2.7 -4.7 2.7 -4.7 0.1z"/>
  <path d="M164.7 124.4 c-1.1 -1.2 0.3 -2.4 2.9 -2.4 1.6 0 2.4 0.5 2.2 1.3 -0.5 1.3 -4 2.2 -5.1 1.1z"/>
 </g>
 <g fill="#efcbab">
  <path d="M222.7 339.2 c-2 -2.1 -2.4 -13.1 -0.7 -16.3 1.3 -2.2 5 -2.6 5 -0.4 0 1.3 2.2 1.5 13.5 1.5 l13.5 0 0 3.5 0 3.4 -14.7 0.4 -14.8 0.3 15.8 0.2 15.7 0.2 0 3.5 0 3.5 -14 0 c-8.7 0 -14 0.4 -14 1 0 1.7 -3.6 1.1 -5.3 -0.8z"/>
  <path d="M268 338 c0 -2.3 0.4 -3 2 -3 1.3 0 2 0.7 2 2 0 1 -0.9 2.4 -2 3 -1.8 1 -2 0.8 -2 -2z"/>
  <path d="M240 291.4 c0 -2.5 2.6 -4.4 5.9 -4.4 2.4 0 3.1 -0.4 3.1 -2 0 -1.6 0.7 -2 3.5 -2 2.8 0 3.5 -0.4 3.5 -2 0 -1.6 0.7 -2 3.5 -2 1.9 0 3.5 0.4 3.5 0.8 0 0.8 -21.1 13.2 -22.4 13.2 -0.3 0 -0.6 -0.7 -0.6 -1.6z"/>
  <path d="M339.5 267.2 c-1.7 -0.9 -5.2 -1.6 -8.2 -1.5 -4.6 0 -5.3 -0.2 -5.3 -2 0 -1.8 0.5 -1.9 7.7 -1.5 4.5 0.3 7.9 1 8.1 1.7 0.6 1.7 4.2 1.3 4.2 -0.4 0 -0.9 0.9 -1.5 2.5 -1.5 1.6 0 2.5 -0.6 2.5 -1.5 0 -0.9 0.9 -1.5 2.5 -1.5 1.6 0 2.5 -0.6 2.5 -1.5 0 -0.9 0.9 -1.5 2.5 -1.5 1.6 0 2.5 -0.6 2.5 -1.5 0 -0.9 0.9 -1.5 2.5 -1.5 1.6 0 2.5 -0.6 2.5 -1.5 0 -0.9 0.9 -1.5 2.5 -1.5 1.6 0 2.5 -0.6 2.5 -1.5 0 -0.9 0.9 -1.5 2.5 -1.5 1.6 0 2.5 -0.6 2.5 -1.5 0 -0.9 0.9 -1.5 2.5 -1.5 1.6 0 2.5 -0.6 2.5 -1.5 0 -0.9 0.9 -1.5 2.5 -1.5 1.6 0 2.5 -0.6 2.5 -1.5 0 -0.9 0.9 -1.5 2.5 -1.5 1.6 0 2.5 -0.6 2.5 -1.5 0 -0.9 0.9 -1.5 2.5 -1.5 1.6 0 2.5 -0.6 2.5 -1.5 0 -0.9 0.9 -1.5 2.5 -1.5 1.6 0 2.5 -0.6 2.5 -1.5 0 -0.9 0.9 -1.5 2.5 -1.5 1.6 0 2.5 -0.6 2.5 -1.5 0 -0.9 0.9 -1.5 2.5 -1.5 1.6 0 2.5 -0.6 2.5 -1.5 0 -0.9 0.9 -1.5 2.5 -1.5 1.6 0 2.5 -0.6 2.5 -1.5 0 -0.9 0.9 -1.5 2.5 -1.5 1.6 0 2.5 -0.6 2.5 -1.5 0 -0.9 0.9 -1.5 2.5 -1.5 1.6 0 2.5 -0.6 2.5 -1.5 0 -1 1.1 -1.5 3.5 -1.5 1.9 0 3.5 0.3 3.5 0.8 0 0.8 -87.6 53.6 -89.4 53.9 -0.6 0 -2.4 -0.6 -4.1 -1.5z"/>
  <path d="M274.8 241.7 c-30.7 -18.4 -43.7 -26.7 -43.8 -27.9 0 -1.1 0.7 -1.8 2 -1.8 1.1 0 2 0.7 2 1.5 0 0.9 0.9 1.5 2.4 1.5 1.4 0 3.1 0.7 4 1.5 0.8 0.8 1.9 1.5 2.5 1.5 0.6 0 1.1 0.7 1.1 1.5 0 0.9 0.9 1.5 2.5 1.5 1.6 0 2.5 0.6 2.5 1.5 0 0.9 0.9 1.5 2.5 1.5 1.6 0 2.5 0.6 2.5 1.5 0 0.9 0.9 1.5 2.5 1.5 1.6 0 2.5 0.6 2.5 1.5 0 0.9 0.9 1.5 2.5 1.5 1.6 0 2.5 0.6 2.5 1.5 0 0.9 0.9 1.5 2.5 1.5 1.6 0 2.5 0.6 2.5 1.5 0 0.9 0.9 1.5 2.5 1.5 1.6 0 2.5 0.6 2.5 1.5 0 0.9 0.9 1.5 2.5 1.5 1.6 0 2.5 0.6 2.5 1.5 0 0.9 0.9 1.5 2.5 1.5 1.6 0 2.5 0.6 2.5 1.5 0 0.9 0.9 1.5 2.5 1.5 1.6 0 2.5 0.6 2.5 1.5 0 0.9 0.9 1.5 2.5 1.5 1.6 0 2.5 0.6 2.5 1.5 0 0.9 0.9 1.5 2.5 1.5 1.6 0 2.5 0.6 2.5 1.5 0 0.9 0.9 1.5 2.5 1.5 1.6 0 2.5 0.6 2.5 1.5 0 0.9 0.9 1.5 2.5 1.5 1.6 0 2.5 0.6 2.5 1.5 0 0.9 0.9 1.5 2.5 1.5 1.6 0 2.5 0.6 2.5 1.5 0 0.9 0.9 1.5 2.5 1.5 2 0 2.5 0.5 2.5 2.5 0 1.4 -0.3 2.5 -0.7 2.5 -0.5 -0.1 -20.5 -11.9 -44.5 -26.3z"/>
  <path d="M334.8 252.8 c-0.3 -2.9 -1 -5.4 -1.6 -5.6 -0.5 -0.1 -0.7 -1.2 -0.4 -2.4 0.3 -1.3 0.1 -1.9 -0.5 -1.5 -0.6 0.4 -1.4 2.2 -1.7 4.1 -0.7 3.5 -2.8 6.1 -3.9 4.9 -1.2 -1.1 -0.8 -6.8 0.5 -8.1 0.9 -0.9 0.9 -1.5 0 -2.4 -1.9 -1.9 -3.6 3.3 -2.6 7.8 1.1 4.4 2.6 5.2 5.2 2.7 3.2 -3 4.1 -2.6 2.9 1.2 -0.9 3.1 -1.4 3.5 -4.4 3.5 -2.1 0 -3.6 -0.6 -3.9 -1.5 -0.4 -0.8 -1.2 -1.5 -2 -1.5 -1.1 0 -1.4 -1.7 -1.4 -7 l0 -7 5 0 c3.6 0 5.2 -0.4 5.6 -1.5 0.4 -0.9 1.9 -1.5 4 -1.5 2.7 0 3.4 0.4 3.4 2 0 1.1 0.7 2 1.5 2 0.8 0 1.5 0.7 1.5 1.5 0 0.8 0.5 1.5 1 1.5 0.6 0 1 -0.7 1 -1.6 0 -1.2 0.9 -1.4 3.8 -1.2 3.5 0.3 3.7 0.5 4 4.1 0.3 3.2 0 3.7 -1.7 3.7 -1.2 0 -2.1 0.7 -2.1 1.5 0 0.9 -0.9 1.5 -2.4 1.5 -1.9 0 -2.6 0.7 -3.1 3 -0.6 2.6 -1.1 3 -4 3 -3.2 0 -3.3 -0.1 -3.7 -5.2z m3.7 0.9 c0.4 -1.3 2.2 -3.1 4 -4.1 3.1 -1.7 7.5 -5.6 6.3 -5.6 -0.2 0 -1.9 1.1 -3.8 2.5 -1.9 1.4 -3.6 2.5 -4 2.5 -0.5 0 -3.3 -5.5 -3.6 -7.2 -0.1 -0.5 -0.2 -1.1 -0.3 -1.5 -0.2 -1.3 -1.8 1.2 -2.5 3.9 -0.5 2.2 -0.3 2.5 1.4 2.1 2.7 -0.7 3.7 2.2 1.6 4.6 -1.8 1.9 -2.2 5.1 -0.6 5.1 0.5 0 1.2 -1 1.5 -2.3z"/>
  <path d="M429.5 257.2 c-1.6 -1.6 -0.2 -4.1 2.5 -4.7 3.4 -0.7 4.1 -2.5 1 -2.5 -1.1 0 -2 -0.6 -2 -1.4 0 -1.8 4.8 -3 6.5 -1.6 1.6 1.3 2.6 5 1.4 5 -0.4 0 -0.6 0.6 -0.4 1.3 0.5 1.2 -7.9 4.9 -9 3.9z"/>
  <path d="M422.3 253.5 c-1.6 -1.1 -2.3 -1.2 -2.6 -0.2 -0.4 0.9 -0.8 0.9 -1.5 -0.2 -0.6 -0.8 -1.7 -1.1 -2.6 -0.8 -1.1 0.5 -1.6 0.1 -1.6 -1.2 0 -1.5 1 -2 4.8 -2.5 2.6 -0.4 6.2 -1 8 -1.3 2.8 -0.4 3.2 -0.2 3.2 1.6 0 1.6 -0.6 2.1 -2.4 2.1 -1.7 0 -2.6 0.6 -2.8 2 -0.3 1.9 -0.5 1.9 -2.5 0.5z"/>
  <path d="M485.6 242.1 c-0.8 -1.2 1.8 -2.1 3.3 -1.1 1 0.5 0.8 0.9 -0.4 1.4 -2.1 0.8 -2.3 0.8 -2.9 -0.3z"/>
  <path d="M287 225 l0 -4 -6.6 0 -6.5 0 0.3 -4.2 0.3 -4.3 7.3 -0.3 7.2 -0.3 0 -3.4 0 -3.5 44.5 0 44.5 0 0 3.5 0 3.4 7.3 0.3 7.2 0.3 0.3 4.3 0.3 4.2 -6.5 0 -6.6 0 0 4 0 4 -46.5 0 -46.5 0 0 -4z"/>
  <path d="M272 184.5 l0 -4.5 9.5 0 9.5 0 0 -4 0 -4 41.5 0 41.5 0 0 4 0 4 9.5 0 9.5 0 0 4.5 0 4.5 -60.5 0 -60.5 0 0 -4.5z"/>
  <path d="M230.4 180.7 c-1.3 -1.5 -0.8 -3.2 1.9 -7 2.5 -3.7 1.7 -4.3 -1.9 -1.5 -2.6 2 -2.7 2 -1.1 0.2 0.9 -1.1 1.7 -3 1.7 -4.2 0 -1.3 0.6 -2.2 1.5 -2.2 1.1 0 1.5 -1.2 1.5 -4.6 l0 -4.5 4.8 0.3 c4.5 0.3 4.7 0.4 5 3.6 0.4 3.8 -1.2 6.2 -3.9 6.2 -1.4 0 -1.9 0.7 -1.9 2.9 0 2.1 -0.6 3.2 -2 3.6 -1.6 0.5 -2 1.5 -2 4.6 0 4 -1.4 5 -3.6 2.6z"/>
  <path d="M421.1 165.6 c-0.7 -0.8 -1.1 -3 -0.9 -4.8 0.3 -3.2 0.5 -3.3 5.1 -3.6 l4.8 -0.3 -0.3 4.8 c-0.3 4.7 -0.4 4.8 -3.9 5.1 -2.2 0.2 -4 -0.2 -4.8 -1.2z"/>
  <path d="M165.8 122.8 c1.7 -0.8 2.6 -0.8 3.4 0 0.9 0.9 0.4 1.2 -2.2 1.1 -3.3 0 -3.4 -0.1 -1.2 -1.1z"/>
 </g>
 <g fill="#aecdfb">
  <path d="M240.4 291.6 c-0.4 -0.9 0.5 -2.9 2 -4.7 1.8 -2.1 2.4 -3.7 2 -5.4 -0.6 -2.2 -0.3 -2.3 7.9 -3 4.6 -0.4 9.4 -0.4 10.7 0 1.9 0.6 1.2 1.3 -5.6 5.2 -4.4 2.4 -9.8 5.5 -12.2 6.9 -3.6 2.1 -4.3 2.3 -4.8 1z"/>
  <path d="M401.5 86.1 c-5.6 -1.1 -8 -2.1 -8 -3.1 0 -0.9 0.8 -1.4 2 -1.3 4.5 0.3 10.1 1.5 12.3 2.6 3.2 1.5 5.3 -0.6 2.2 -2.3 -1.8 -1 -2 -1.4 -0.9 -2.2 1.1 -0.8 1 -0.9 -0.3 -0.4 -1.6 0.5 -4.8 -2.6 -4.8 -4.6 0 -2.4 9.6 1.6 10.9 4.5 0.2 0.5 1.6 2.4 3.2 4.2 1.6 1.7 2.6 3.5 2.3 3.8 -0.8 0.7 -3.7 -0.4 -4.6 -1.7 -0.4 -0.6 -0.9 -0.4 -1.4 0.7 -0.7 2.1 -2.5 2 -12.9 -0.2z"/>
 </g>
 <g fill="#f6dbc3">
  <path d="M223.4 339.4 c-1.3 -1.1 -1.5 -1.7 -0.6 -2 1.5 -0.7 1.7 -11.4 0.2 -11.4 -1.6 0 -1.1 -3.7 0.6 -4.4 0.9 -0.3 10.1 -0.6 20.5 -0.6 l18.9 0 0 8.1 0 8 4.5 -0.7 c4.8 -0.7 5.7 0.3 2.9 3 -2.3 2.4 -44.1 2.4 -47 0z m12.9 -4.1 c-1.8 -0.2 -4.8 -0.2 -6.5 0 -1.8 0.2 -0.4 0.4 3.2 0.4 3.6 0 5 -0.2 3.3 -0.4z m14 0 c-1.8 -0.2 -4.8 -0.2 -6.5 0 -1.8 0.2 -0.4 0.4 3.2 0.4 3.6 0 5 -0.2 3.3 -0.4z m-2.5 -8 c-2.1 -0.2 -5.7 -0.2 -8 0 -2.4 0.2 -0.7 0.4 3.7 0.4 4.4 0 6.3 -0.2 4.3 -0.4z"/>
  <path d="M267.3 325.5 c-1.9 -2.1 -1.6 -4.5 0.5 -4.5 2.3 0 4.2 1.9 4.2 4.2 0 2.2 -3 2.3 -4.7 0.3z"/>
  <path d="M247 285 c0 -0.5 1 -1 2.3 -1 1.8 0 1.9 0.2 0.7 1 -1.9 1.3 -3 1.3 -3 0z"/>
  <path d="M276.1 242.2 c-24.5 -14.7 -44.6 -27.3 -44.9 -28 -0.2 -0.7 0.5 -1.2 1.7 -1.2 2.1 0 2.1 -0.4 1.9 -18.2 0 -10.1 -0.3 -16.8 -0.5 -15 -0.3 1.9 -1 3.2 -1.9 3.2 -2.6 0 -2.1 -6.1 0.8 -10.9 l2.1 -3.3 -2.1 1.1 c-2 1.1 -2.2 0.9 -2.2 -1.4 0 -1.4 0.6 -2.5 1.4 -2.5 0.9 0 1.6 -1.8 2 -5.1 l0.7 -5.1 4.2 0.7 c2.3 0.4 14.2 0.9 26.5 1.2 21.7 0.4 22.2 0.3 22.2 -1.6 0 -2 0.6 -2.1 43 -2.3 23.7 -0.2 43.5 -0.1 44 0 0.6 0.2 1 1.2 1 2.3 0 1.9 0.7 2 22.3 1.6 12.2 -0.3 23.9 -0.8 25.9 -1.2 2.8 -0.5 4.1 -0.3 5.3 0.8 1.7 1.7 2.1 8.2 0.5 9.2 -0.6 0.4 -0.9 9 -0.8 23.3 0.2 14.2 0.4 17.9 0.5 10 0.3 -12 0.5 -12.8 2.3 -12.8 1.9 0 2 0.7 2 13.9 l0 13.8 -45.4 27.2 c-43.9 26.4 -45.5 27.2 -47.8 25.7 -4.2 -2.8 -10 -3 -15.3 -0.7 -2.6 1.2 -4.8 2.1 -4.9 2.1 0 -0.1 -20.1 -12.1 -44.5 -26.8z m67.9 21.8 c0 -0.5 1.1 -1 2.5 -1 1.6 0 2.5 -0.6 2.5 -1.5 0 -0.9 0.9 -1.5 2.5 -1.5 1.6 0 2.5 -0.6 2.5 -1.5 0 -0.9 0.9 -1.5 2.5 -1.5 1.6 0 2.5 -0.6 2.5 -1.5 0 -0.9 0.9 -1.5 2.5 -1.5 1.6 0 2.5 -0.6 2.5 -1.5 0 -0.9 0.9 -1.5 2.5 -1.5 1.6 0 2.5 -0.6 2.5 -1.5 0 -0.9 0.9 -1.5 2.5 -1.5 1.6 0 2.5 -0.6 2.5 -1.5 0 -0.9 0.9 -1.5 2.5 -1.5 1.6 0 2.5 -0.6 2.5 -1.5 0 -0.9 0.9 -1.5 2.5 -1.5 1.6 0 2.5 -0.6 2.5 -1.5 0 -0.9 0.9 -1.5 2.5 -1.5 1.6 0 2.5 -0.6 2.5 -1.5 0 -0.9 0.9 -1.5 2.5 -1.5 1.6 0 2.5 -0.6 2.5 -1.5 0 -0.9 0.9 -1.5 2.5 -1.5 1.6 0 2.5 -0.6 2.5 -1.5 0 -0.9 0.9 -1.5 2.5 -1.5 1.6 0 2.5 -0.6 2.5 -1.5 0 -0.9 0.9 -1.5 2.5 -1.5 1.6 0 2.5 -0.6 2.5 -1.5 0 -0.9 0.9 -1.5 2.5 -1.5 1.6 0 2.5 -0.6 2.5 -1.5 0 -0.9 0.9 -1.5 2.5 -1.5 1.6 0 2.5 -0.6 2.5 -1.5 0 -0.8 0.7 -1.5 1.5 -1.5 1.3 0 1.5 -3.5 1.5 -25.3 0 -18.3 -0.3 -25.6 -1.2 -26.5 -1.7 -1.7 -175.9 -1.7 -177.6 0 -0.9 0.9 -1.2 8.3 -1.2 27 l0 25.8 2.5 0 c1.6 0 2.5 0.6 2.5 1.5 0 0.9 0.9 1.5 2.5 1.5 1.6 0 2.5 0.6 2.5 1.5 0 0.9 0.9 1.5 2.5 1.5 1.6 0 2.5 0.6 2.5 1.5 0 0.9 0.9 1.5 2.5 1.5 1.6 0 2.5 0.6 2.5 1.5 0 0.9 0.9 1.5 2.5 1.5 1.6 0 2.5 0.6 2.5 1.5 0 0.9 0.9 1.5 2.5 1.5 1.6 0 2.5 0.6 2.5 1.5 0 0.9 0.9 1.5 2.5 1.5 1.6 0 2.5 0.6 2.5 1.5 0 0.9 0.9 1.5 2.5 1.5 1.6 0 2.5 0.6 2.5 1.5 0 0.9 0.9 1.5 2.5 1.5 1.6 0 2.5 0.6 2.5 1.5 0 0.9 0.9 1.5 2.5 1.5 1.6 0 2.5 0.6 2.5 1.5 0 0.9 0.9 1.5 2.5 1.5 1.6 0 2.5 0.6 2.5 1.5 0 0.9 0.9 1.5 2.5 1.5 1.6 0 2.5 0.6 2.5 1.5 0 0.9 0.9 1.5 2.5 1.5 1.6 0 2.5 0.6 2.5 1.5 0 0.9 0.9 1.5 2.5 1.5 1.6 0 2.5 0.6 2.5 1.5 0 0.9 0.9 1.5 2.5 1.5 1.6 0 2.5 0.6 2.5 1.6 0 1.3 0.6 1.5 3.3 1 1.7 -0.4 6.7 -1 11 -1.3 6.6 -0.4 7.7 -0.3 7.7 1.1 0 1 0.9 1.6 2.5 1.6 1.4 0 2.5 -0.4 2.5 -1z m-103.6 -103.1 c-0.8 -1.4 -3.4 -1.1 -3.4 0.4 0 0.8 0.3 1.7 0.7 2 0.9 0.9 3.4 -1.3 2.7 -2.4z m186.6 0.5 c0 -1.4 -2.1 -1.9 -3.3 -0.7 -0.9 0.9 1.3 3.4 2.4 2.7 0.5 -0.3 0.9 -1.2 0.9 -2z"/>
  <path d="M333.3 258.5 c-0.7 -0.8 -1.3 -2.1 -1.3 -3 0 -0.8 -0.7 -1.5 -1.5 -1.5 -1.2 0 -1.3 -0.3 -0.3 -1.9 0.7 -1.1 1.6 -1.7 2 -1.5 0.4 0.3 1.2 -0.6 1.8 -2 1 -2.6 3.4 -3.4 4.5 -1.6 0.4 0.6 0 2.2 -0.9 3.5 -1.8 2.8 -2.1 5.5 -0.6 5.5 0.6 0 1.4 -1 1.9 -2.3 0.5 -1.2 3 -3.6 5.5 -5.2 2.5 -1.6 4.6 -3.3 4.6 -3.7 0 -1.3 -1 -0.9 -4.6 1.8 -1.9 1.5 -3.6 2.5 -3.7 2.3 -0.7 -1.1 -3.1 -6.5 -3.1 -7.3 -0.2 -2.5 -2.6 -1.4 -3.5 1.6 -0.5 1.8 -1 2.5 -1 1.6 -0.1 -1.9 -2 -2.5 -2.2 -0.8 -0.2 1.3 -0.3 2 -1.2 5.3 -0.4 1.5 -1.4 2.7 -2.2 2.7 -1.8 0 -1.9 -1.6 -0.4 -5.9 1.5 -4.1 -0.2 -6.5 -2.3 -3.2 -1.9 3 -2.8 2.6 -2.8 -1.4 0 -3.4 0.1 -3.5 4.3 -3.5 2.3 0 6.6 -0.3 9.5 -0.6 l5.2 -0.7 0 3.2 c0 2.6 0.4 3.1 2.5 3.1 1.4 0 2.5 -0.4 2.5 -1 0 -0.5 1.6 -1 3.5 -1 3.2 0 3.5 0.2 3.5 3.1 0 3.7 -2 5.9 -5.4 5.9 -1.9 0 -2.6 0.5 -2.6 2 0 1.3 -0.7 2 -2 2 -1.6 0 -2 0.7 -2 3 0 2.7 -0.3 3 -3.2 3 -1.8 -0.1 -3.9 -0.7 -4.5 -1.5z"/>
  <path d="M321 251.5 c0 -2.4 0.5 -3.5 1.5 -3.5 0.8 0 1.5 0.7 1.5 1.5 0 0.8 0.9 2.4 2 3.5 l2 2 -3.5 0 c-3.3 0 -3.5 -0.2 -3.5 -3.5z"/>
  <path d="M287 226.5 l0 -3.5 24.5 0 c15.7 0 24.5 -0.4 24.5 -1 0 -0.5 -0.7 -1 -1.5 -1 -2.3 0 -1.8 -2.7 0.7 -3.4 1.8 -0.4 2 -0.8 1 -1.8 -1.7 -1.7 -22.6 -2.4 -26.4 -0.9 -3.3 1.2 -3.7 3.1 -0.7 3.1 1.1 0 1.7 0.5 1.4 1 -0.3 0.6 -3 1 -6 1 -3 0 -5.7 -0.4 -6 -1 -0.3 -0.5 0.3 -1 1.4 -1 2.3 0 2.8 -1.5 1 -2.6 -0.7 -0.4 -3.7 -1 -6.8 -1.3 l-5.6 -0.6 -0.3 -4.2 -0.3 -4.3 3.5 0 c2 0 3.6 0.5 3.6 1 0 0.6 13.5 1 38.5 1 25 0 38.5 -0.4 38.5 -1 0 -0.5 1.6 -1 3.6 -1 l3.5 0 -0.3 4.3 -0.3 4.2 -18 0.5 c-9.9 0.3 -18.6 0.9 -19.2 1.3 -2 1.3 -1.5 2.5 1 3 2.2 0.4 2.2 0.4 -0.3 1.5 -1.8 0.8 -2 1.1 -0.7 1.1 0.9 0.1 1.7 0.6 1.7 1.1 0 0.6 6.8 1 18.5 1 l18.5 0 0 3.5 0 3.5 -46.5 0 -46.5 0 0 -3.5z m50 -1.5 c0 -0.6 -8.5 -1 -23.5 -1 -15 0 -23.5 0.4 -23.5 1 0 0.6 8.5 1 23.5 1 15 0 23.5 -0.4 23.5 -1z m40 0 c0 -0.6 -6.8 -1 -18.5 -1 -11.7 0 -18.5 0.4 -18.5 1 0 0.6 6.8 1 18.5 1 11.7 0 18.5 -0.4 18.5 -1z m-2 -16 c0 -0.7 -14.5 -1 -41.5 -1 -27 0 -41.5 0.3 -41.5 1 0 0.7 14.5 1 41.5 1 27 0 41.5 -0.3 41.5 -1z"/>
  <path d="M386.5 219 c-0.3 -0.5 0.3 -1 1.4 -1 2.7 0 2.7 -2 0.1 -2.7 -1.1 -0.3 -2 -1.2 -2 -2 0 -1 1 -1.3 3.8 -1.1 3.5 0.3 3.7 0.5 4 4.1 0.3 3.6 0.3 3.7 -3.2 3.7 -1.9 0 -3.8 -0.4 -4.1 -1z"/>
  <path d="M274 215.5 c0 -3.3 0.2 -3.5 3.5 -3.5 3.9 0 5 2.4 1.5 3.3 -2.7 0.7 -2.5 2.5 0.3 3 1.3 0.3 0.8 0.5 -1.5 0.6 -3.7 0.1 -3.8 0 -3.8 -3.4z"/>
  <path d="M272.2 188.4 c-0.7 -0.8 -1.2 -3.1 -1 -5.2 l0.3 -3.7 9.3 -0.3 c9.1 -0.3 9.2 -0.3 9.2 -2.8 0 -5.5 -0.6 -5.4 43.7 -5.2 l40.8 0.3 0.3 3.7 0.3 3.7 9.2 0.3 9.2 0.3 0.3 4.4 c0.2 2.8 -0.1 4.7 -1 5.2 -0.7 0.5 -27.8 0.9 -60.3 0.8 -50.9 0 -59.2 -0.2 -60.3 -1.5z m117.8 -3.9 c0 -1.3 -7.1 -1.5 -57.5 -1.5 -50.4 0 -57.5 0.2 -57.5 1.5 0 1.3 7.1 1.5 57.5 1.5 50.4 0 57.5 -0.2 57.5 -1.5z m-19 -8 c0 -1.3 -4.9 -1.5 -38.5 -1.5 -33.6 0 -38.5 0.2 -38.5 1.5 0 1.3 4.9 1.5 38.5 1.5 33.6 0 38.5 -0.2 38.5 -1.5z"/>
  <path d="M431 254.4 c0 -1.9 0.5 -2.4 2.5 -2.4 1.4 0 2.5 -0.4 2.5 -1 0 -0.5 -0.9 -1 -2 -1 -2.5 0 -2.6 -2.6 -0.1 -3.3 2.3 -0.6 3.4 0.1 5 3.1 0.8 1.4 0.8 2.2 0.1 2.2 -0.5 0 -0.9 0.5 -0.7 1.1 0.1 0.6 -1.5 1.7 -3.5 2.5 -3.7 1.3 -3.8 1.2 -3.8 -1.2z"/>
  <path d="M417 250.6 c0 -1.4 1.4 -1.9 9.8 -3.1 3.7 -0.6 4.2 -0.5 4.2 1.3 0 1.6 -0.9 2 -5.2 2.6 -7.6 0.9 -8.8 0.8 -8.8 -0.8z"/>
 </g>
 <g fill="#cfe1f7">
  <path d="M243.5 285.6 c1 -1.5 1.5 -3 1.1 -3.4 -0.9 -0.8 17.4 -4.1 19.2 -3.4 0.7 0.2 -3.1 2.2 -8.5 4.2 -5.4 2.1 -10.6 4.1 -11.7 4.5 -1.8 0.8 -1.8 0.7 -0.1 -1.9z"/>
  <path d="M79.8 249.3 c-3.1 -0.5 -5.2 -2.7 -4.5 -4.6 0.3 -0.8 5.3 -3.1 11.2 -5.1 8.7 -3.1 10.9 -3.6 11.6 -2.5 1.5 2.3 1 3.9 -2.3 8.5 -3 4.3 -3.3 4.4 -8.2 4.3 -2.8 -0.1 -6.3 -0.4 -7.8 -0.6z"/>
  <path d="M486.4 150.3 c-3.8 -4.3 -7.7 -8.8 -8.8 -10 -1.6 -1.9 -1.7 -2.7 -0.8 -4.7 l1.1 -2.5 10.8 3 c5.9 1.7 16.3 4.5 23.1 6.2 11.8 3.1 12.3 3.3 12 5.7 -0.3 2.2 -1.6 3 -10.3 6.2 -6.6 2.4 -11.8 3.7 -15.2 3.8 l-5.1 0 -6.8 -7.7z"/>
  <path d="M299 105.1 c-10.6 -1.9 -12 -2.5 -12 -5 0 -1.2 2.1 -2.4 8.3 -4.4 4.5 -1.5 13.4 -4.9 19.6 -7.7 11.6 -5 14.1 -5.3 14.1 -1.3 0 1.6 -5.7 11.6 -9.7 17.1 -2.8 3.8 -5.2 4 -20.3 1.3z"/>
  <path d="M419 87.1 c0 -0.6 -0.7 -0.8 -1.5 -0.4 -0.9 0.3 -1.5 0.2 -1.4 -0.3 0.4 -2.2 -0.2 -3.4 -1.6 -3.4 -0.8 0 -1.5 -0.4 -1.5 -1 0 -0.5 -0.7 -1 -1.5 -1 -0.8 0 -1.5 -0.4 -1.5 -1 0 -0.5 -0.6 -1 -1.3 -1 -0.8 0 -2.2 -0.9 -3.2 -2 -1.8 -2 -1.7 -2 1.8 -2 2.1 0 3.7 0.5 3.7 1 0 0.6 0.7 1 1.5 1 0.8 0 1.5 0.6 1.5 1.4 0 0.8 0.3 1.6 0.8 1.8 2.1 1 6.3 6.6 5.3 7.2 -0.6 0.4 -1.1 0.3 -1.1 -0.3z"/>
  <path d="M410.7 86.3 c-1.8 -0.5 -1.8 -0.5 0 -1.8 1.9 -1.4 4.8 -0.1 3.7 1.6 -0.5 0.9 -0.8 1 -3.7 0.2z"/>
  <path d="M403.5 84 c-1.8 -0.8 -1.7 -0.9 0.7 -0.9 1.5 -0.1 3 0.4 3.3 0.9 0.7 1.2 -1.2 1.2 -4 0z"/>
 </g>
 <g fill="#dce9fa">
  <path d="M243.6 285.5 c0.9 -1.3 1.3 -2.8 1.1 -3.2 -0.3 -0.5 0.8 -1 2.4 -1.1 1.6 -0.1 5.8 -0.8 9.4 -1.6 3.6 -0.7 6.5 -1 6.5 -0.6 0 0.4 -2.4 1.6 -5.2 2.8 -2.9 1.1 -7.7 2.9 -10.6 4.1 l-5.2 2.1 1.6 -2.5z"/>
  <path d="M77.1 251.1 c-1.1 -3.2 -2.1 -6 -2.1 -6.3 0 -0.3 2.6 0.1 5.8 0.8 3.1 0.8 6.4 1.4 7.3 1.4 0.9 0 3.4 -2.5 5.5 -5.6 l3.9 -5.6 2.2 4.8 c1.2 2.7 2.2 5.6 2.2 6.5 0.1 1.1 -3.1 2.8 -10.5 5.7 -5.8 2.3 -10.9 4.2 -11.3 4.2 -0.5 0 -1.8 -2.6 -3 -5.9z"/>
  <path d="M509 171.9 c-1.9 -0.6 -11.1 -3 -20.5 -5.5 -9.3 -2.4 -17.3 -4.8 -17.8 -5.3 -0.8 -0.8 4.3 -22.5 6.1 -25.7 0.7 -1.2 2.9 0.8 10.1 9 6.6 7.6 9.8 10.6 11.4 10.6 1.2 -0.1 7.4 -2 13.7 -4.4 6.3 -2.4 11.7 -3.9 11.9 -3.3 0.2 0.5 -1.1 6.5 -2.9 13.3 -3.7 13.8 -3.5 13.6 -12 11.3z"/>
  <path d="M298.9 120.3 c-3.9 -9.3 -6.2 -13.2 -9.6 -16.4 -1.8 -1.8 -3.3 -3.8 -3.3 -4.4 0 -0.6 1.9 -1.6 4.3 -2.2 2.3 -0.7 5.1 -1.4 6.2 -1.8 1.1 -0.3 0 0.5 -2.5 1.9 -2.5 1.4 -4.3 2.5 -4 2.6 0.3 0 5.7 0.9 11.9 2 13.6 2.3 12.4 2.9 19.6 -9.4 2.8 -4.7 5.4 -8.6 5.8 -8.6 1 0 10.6 20.2 10.1 21.2 -0.2 0.3 -3.7 1.9 -7.7 3.4 -7 2.7 -20.2 9.9 -24.2 13.4 -4 3.4 -4.4 3.3 -6.6 -1.7z"/>
  <path d="M417.5 85.4 c-1.1 -1.3 -2.4 -2.4 -2.8 -2.4 -1 0 -3.7 -2.6 -3.7 -3.4 0 -0.3 0.8 -0.6 1.8 -0.6 1.9 0 8.7 7.6 7.5 8.3 -0.5 0.3 -1.7 -0.6 -2.8 -1.9z"/>
  <path d="M411.5 86 c-1.9 -0.7 -1.9 -0.8 -0.2 -1.5 1 -0.4 2.3 -0.3 2.9 0.3 1.4 1.4 -0.3 2.1 -2.7 1.2z"/>
  <path d="M404.5 84 c-1.9 -0.8 -1.9 -0.9 0.2 -0.9 1.2 -0.1 2.5 0.4 2.8 0.9 0.7 1.2 -0.2 1.2 -3 0z"/>
  <path d="M406.2 77.4 c-3 -2.1 -2.8 -3.4 0.8 -3.4 2.5 0 3 0.4 3 2.5 0 2.9 -0.7 3.1 -3.8 0.9z"/>
 </g>
 <g fill="#fcecdc">
  <path d="M222.7 339.3 c-1.2 -1.2 -0.8 -15.8 0.5 -17.1 0.9 -0.9 7.5 -1.2 23.4 -1.2 18.9 0 22.5 0.2 23.8 1.6 2 1.9 2.2 14.4 0.4 16.2 -1.3 1.3 -46.9 1.8 -48.1 0.5z m16.8 -3.3 c0.4 -0.6 -1.8 -1 -5.9 -1 -3.7 0 -6.6 0.4 -6.6 1 0 0.6 2.6 1 5.9 1 3.3 0 6.3 -0.4 6.6 -1z m14 0 c0.4 -0.6 -1.8 -1 -5.9 -1 -3.7 0 -6.6 0.4 -6.6 1 0 0.6 2.6 1 5.9 1 3.3 0 6.3 -0.4 6.6 -1z m6.5 -3 c0 -0.6 -6.2 -1 -16.5 -1 -10.3 0 -16.5 0.4 -16.5 1 0 0.6 6.2 1 16.5 1 10.3 0 16.5 -0.4 16.5 -1z m-26 -5 c0 -0.5 -1.6 -1 -3.5 -1 -1.9 0 -3.5 0.5 -3.5 1 0 0.6 1.6 1 3.5 1 1.9 0 3.5 -0.4 3.5 -1z m17.5 0 c0.4 -0.6 -2.5 -1 -7.9 -1 -5.1 0 -8.6 0.4 -8.6 1 0 0.6 3.3 1 7.9 1 4.4 0 8.3 -0.4 8.6 -1z m8.5 -3 c0 -0.6 -6.2 -1 -16.5 -1 -10.3 0 -16.5 0.4 -16.5 1 0 0.6 6.2 1 16.5 1 10.3 0 16.5 -0.4 16.5 -1z"/>
  <path d="M279.8 244.3 l-40.8 -24.6 0 -27.6 c0 -20.2 0.3 -28 1.2 -28.9 1.7 -1.7 181.9 -1.7 183.6 0 0.9 0.9 1.2 8.7 1.2 28.9 l0 27.8 -40.7 24.4 -40.7 24.4 -4 -1.8 c-5.3 -2.4 -10.2 -2.4 -15.1 0.1 -2.2 1.1 -3.9 2 -4 1.9 0 0 -18.3 -11.1 -40.7 -24.6z m65.2 4 c3 -2 4.9 -3.8 4.2 -4.1 -0.6 -0.2 -2.6 0.7 -4.3 1.9 l-3.2 2.2 -1.8 -2.2 c-1.1 -1.3 -1.9 -3.2 -1.9 -4.3 0 -3.1 -3.4 -1.7 -4.1 1.7 -0.4 1.7 -0.7 2.2 -0.8 1.2 -0.1 -2.4 -2.5 -1.6 -2.9 0.9 -0.7 5 -1.4 6.4 -2.7 6.4 -1 0 -1.5 -1.1 -1.5 -3.5 0 -1.9 0.5 -3.5 1 -3.5 0.6 0 1 -0.9 1 -2 0 -2.4 -2.5 -2.7 -3.4 -0.4 -2.2 5.8 0.7 13.2 4.2 10.6 1 -0.7 2.5 -1.5 3.5 -1.8 0.9 -0.4 1.7 -1.1 1.7 -1.8 0 -2.2 1.7 -3.7 3.3 -3 2.2 0.8 2.1 1.6 -0.3 4.4 -2.3 2.7 -2.4 3.2 -0.7 4.9 1 1 1.4 0.7 2.3 -1.4 0.5 -1.4 3.5 -4.2 6.4 -6.2z m-8 -22.8 c0 -1.3 -3.3 -1.5 -23.5 -1.5 -20.2 0 -23.5 0.2 -23.5 1.5 0 1.3 3.3 1.5 23.5 1.5 20.2 0 23.5 -0.2 23.5 -1.5z m40 0 c0 -1.3 -2.8 -1.5 -19 -1.5 -17.4 0 -20.3 0.4 -18.3 2.3 0.3 0.4 8.9 0.7 19 0.7 15.6 0 18.3 -0.2 18.3 -1.5z m-74.7 -9 c0.1 -0.6 -4.7 -1.1 -12.5 -1.3 -11.1 -0.2 -12.8 0 -12.8 1.3 0 1.3 1.7 1.5 12.5 1.3 7.3 -0.2 12.6 -0.7 12.8 -1.3z m34.7 0 c0 -1.3 -2.3 -1.5 -14.9 -1.5 -13.6 0 -17.2 0.5 -15.4 2.4 0.3 0.3 7.3 0.6 15.5 0.6 12.5 0 14.8 -0.2 14.8 -1.5z m53.3 0 c0.2 -1 -47.5 -2 -50.1 -1 -0.7 0.3 -1 0.9 -0.7 1.5 0.9 1.4 50.4 0.9 50.8 -0.5z m-14.5 -7.2 c0.3 -1 -8.6 -1.3 -42.2 -1.3 -23.4 0 -42.6 0.4 -42.6 0.8 0 0.5 0.3 1.2 0.7 1.5 0.4 0.4 19.3 0.6 42.1 0.5 32.2 -0.2 41.6 -0.6 42 -1.5z m14.1 -23.2 c0.8 -0.5 1.1 -1.6 0.8 -2.5 -0.6 -1.4 -6.3 -1.6 -58.1 -1.6 -38.9 0 -57.7 0.3 -58.1 1 -0.4 0.6 -0.1 1.7 0.5 2.5 1.1 1.3 9.4 1.5 57.4 1.5 30.8 0 56.7 -0.4 57.5 -0.9z m-19 -8 c0.8 -0.5 1.1 -1.6 0.8 -2.5 -0.6 -1.4 -4.7 -1.6 -38.5 -1.6 -30.3 0 -38.2 0.3 -39.1 1.3 -2.7 3.4 0.5 3.7 38.4 3.7 20.3 0 37.6 -0.4 38.4 -0.9z"/>
  <path d="M430 255.1 c0 -2.4 0.4 -3.1 2 -3.1 1.5 0 2 -0.7 2 -2.5 0 -1.8 0.5 -2.5 1.9 -2.5 4.1 0 3.8 7 -0.3 8.1 -1.5 0.4 -3.4 1.3 -4.2 2 -1.2 0.9 -1.4 0.6 -1.4 -2z"/>
  <path d="M416.3 252.3 c-4.7 -0.9 -2.4 -3 4 -3.7 3.4 -0.4 7.4 -1 9 -1.3 2.2 -0.5 2.7 -0.2 2.7 1.4 0 1.7 -0.9 2.1 -5.4 2.7 -3 0.3 -6 0.8 -6.8 1 -0.7 0.2 -2.3 0.1 -3.5 -0.1z"/>
  <path d="M234.3 216.9 l-3.3 -2.1 0 -19.5 c0 -18.2 0.1 -19.7 2.1 -22.5 2.3 -3.1 1.9 -4.9 -0.6 -2.8 -1.3 1.1 -1.5 0.2 -1.5 -7.4 l0 -8.6 22 0 c20.4 0 21.9 -0.1 21.4 -1.8 -0.5 -1.3 -0.4 -1.4 0.4 -0.3 0.7 0.9 4.1 1.7 9.9 2.2 11.4 1 88.3 1.1 88.3 0.2 0 -0.5 13.7 -0.7 30.5 -0.5 l30.5 0.3 -0.1 16.2 c-0.1 8.9 -0.4 22.7 -0.8 30.6 l-0.6 14.5 -3.2 1.9 -3.3 1.9 0 -27.4 c0 -19.4 0.3 -27.7 1.2 -28.6 1.8 -1.8 -0.9 -4.5 -3.3 -3.2 -1.8 1 -182 1 -184.8 0 -1.1 -0.4 -1.3 4.6 -1.1 29.3 0.1 16.3 0 29.7 -0.2 29.7 -0.2 0 -1.8 -1 -3.5 -2.1z"/>
 </g>
 <g fill="#eaf3fa">
  <path d="M243.9 284.8 c0.9 -1.5 2.3 -3 3.1 -3.2 3.5 -1 15.1 -2.8 15.5 -2.5 0.2 0.2 -4.3 2.3 -9.9 4.5 l-10.3 4.1 1.6 -2.9z"/>
  <path d="M426.5 255.8 c-2.2 -1.2 -4.3 -2.5 -4.6 -3 -0.3 -0.5 -1 -0.8 -1.5 -0.7 -2.4 0.4 -4.4 -0.2 -4.4 -1.5 0 -1 2.8 -1.7 10 -2.7 8.8 -1.1 10.3 -1 11.6 0.3 1.9 1.9 0.3 6.8 -2.2 6.8 -1 0 -2.5 0.6 -3.3 1.4 -1.4 1.2 -2.1 1.2 -5.6 -0.6z"/>
  <path d="M300.6 124.1 c-0.4 -0.6 1.6 -2.2 4.3 -3.6 6 -3 7.8 -3.3 3.6 -0.5 -1.6 1.1 -4 2.7 -5.2 3.5 -1.3 1 -2.3 1.2 -2.7 0.6z"/>
  <path d="M229.9 110.3 c-3.2 -0.8 -3 -4.5 0.4 -10.1 3.7 -6.1 17.1 -21 18.1 -20.1 1.1 1 -1.5 9.9 -4.5 15.9 -3.5 6.8 -5.6 9.3 -9.7 11.4 -1.8 0.9 -3 2.1 -2.7 2.6 0.4 0.6 0.5 0.9 0.3 0.9 -0.2 -0.1 -1 -0.3 -1.9 -0.6z"/>
  <path d="M288.2 102.7 c-2.9 -3.1 -2.8 -4.3 0.6 -5 1.5 -0.3 3.6 -0.8 4.7 -1.2 1.1 -0.3 0.7 0.1 -1 1.1 -1.6 0.9 -3.1 1.8 -3.3 1.9 -0.1 0.1 0.2 1.4 0.7 2.9 1.3 3.2 1 3.2 -1.7 0.3z"/>
  <path d="M416 84 c-2.1 -1.8 -2.8 -3 -1.9 -3 0.8 0 2.8 1.4 4.4 3 3.7 3.8 2.1 3.8 -2.5 0z"/>
  <path d="M410.5 85 c0.3 -0.5 1.2 -1 2 -1 0.8 0 1.7 0.5 2 1 0.4 0.6 -0.5 1 -2 1 -1.5 0 -2.4 -0.4 -2 -1z"/>
  <path d="M406.3 77.3 c-3.1 -2.1 -2.9 -4.3 0.2 -4.3 2.1 0 2.5 0.5 2.5 3 0 1.7 -0.1 3 -0.2 2.9 -0.2 0 -1.3 -0.7 -2.5 -1.6z"/>
  <path d="M290.8 59.8 c-2.1 -0.6 -3.8 -1.4 -3.8 -1.9 0 -0.9 12.9 -5.1 22.8 -7.3 3.4 -0.8 6.2 -1 6.2 -0.5 0 1.5 -9.3 7.8 -13.9 9.4 -5 1.7 -6 1.7 -11.3 0.3z"/>
 </g>
 <g fill="#ffffff">
  <path d="M244 284.9 c0.7 -1.3 1.4 -2.5 1.5 -2.6 0.3 -0.5 15.9 -3.3 16.2 -2.9 0.2 0.1 -3.4 1.7 -7.9 3.5 -4.6 1.8 -8.9 3.5 -9.7 3.9 -1.1 0.4 -1.1 0.1 -0.1 -1.9z"/>
  <path d="M414.2 250.9 c0.3 -0.9 3.3 -1.8 8.4 -2.6 10.9 -1.6 12.4 -1.6 11.8 0.1 -0.6 1.5 -3.4 2.2 -13.8 3.2 -5.7 0.6 -6.8 0.5 -6.4 -0.7z"/>
  <path d="M412.3 81.2 c-4.6 -3.1 -8.3 -6.2 -8.3 -6.8 0 -1.1 3.1 -4.4 4.2 -4.4 0.2 0 2.2 2.6 4.3 5.7 2.1 3.2 5 7 6.4 8.6 1.4 1.5 2.3 2.7 2 2.7 -0.2 0 -4.1 -2.6 -8.6 -5.8z"/>
  <path d="M411 85 c0 -1.3 1.1 -1.3 3 0 1.2 0.8 1.1 1 -0.7 1 -1.3 0 -2.3 -0.4 -2.3 -1z"/>
 </g>
</svg>