<svg width="76" height="40" viewBox="0 0 76 40" fill="none" xmlns="http://www.w3.org/2000/svg">
<path fill-rule="evenodd" clip-rule="evenodd" d="M13 20C13 19.4107 13.2341 18.8456 13.6508 18.4289C14.0675 18.0122 14.6326 17.7781 15.2219 17.7781L67.6279 17.7781L53.6432 3.79783C53.226 3.38062 52.9916 2.81475 52.9916 2.22472C52.9916 1.63469 53.226 1.06882 53.6432 0.651604C54.0604 0.234386 54.6263 0 55.2163 0C55.8063 0 56.3722 0.234386 56.7894 0.651604L74.5647 18.4269C74.7716 18.6333 74.9358 18.8785 75.0478 19.1484C75.1598 19.4184 75.2175 19.7077 75.2175 20C75.2175 20.2923 75.1598 20.5816 75.0478 20.8516C74.9358 21.1215 74.7716 21.3667 74.5647 21.5731L56.7894 39.3484C56.3722 39.7656 55.8063 40 55.2163 40C54.6263 40 54.0604 39.7656 53.6432 39.3484C53.226 38.9312 52.9916 38.3653 52.9916 37.7753C52.9916 37.1853 53.226 36.6194 53.6432 36.2022L67.6279 22.2219L15.2219 22.2219C14.6326 22.2219 14.0675 21.9878 13.6508 21.5711C13.2341 21.1544 13 20.5893 13 20Z" fill="white"/>
<circle cx="8" cy="20" r="8" transform="rotate(-90 8 20)" fill="white"/>
</svg>
