<svg width="40" height="76" viewBox="0 0 40 76" fill="none" xmlns="http://www.w3.org/2000/svg">
<path fill-rule="evenodd" clip-rule="evenodd" d="M20 13C20.5893 13 21.1544 13.2341 21.5711 13.6508C21.9878 14.0675 22.2219 14.6326 22.2219 15.2219V67.6279L36.2022 53.6432C36.6194 53.226 37.1853 52.9916 37.7753 52.9916C38.3653 52.9916 38.9312 53.226 39.3484 53.6432C39.7656 54.0604 40 54.6263 40 55.2163C40 55.8063 39.7656 56.3722 39.3484 56.7894L21.5731 74.5647C21.3667 74.7716 21.1215 74.9358 20.8516 75.0478C20.5816 75.1598 20.2923 75.2175 20 75.2175C19.7077 75.2175 19.4184 75.1598 19.1484 75.0478C18.8785 74.9358 18.6333 74.7716 18.4269 74.5647L0.651604 56.7894C0.234389 56.3722 -1.39016e-08 55.8063 0 55.2163C1.39016e-08 54.6263 0.234389 54.0604 0.651604 53.6432C1.06882 53.226 1.63469 52.9916 2.22472 52.9916C2.81475 52.9916 3.38061 53.226 3.79783 53.6432L17.7781 67.6279V15.2219C17.7781 14.6326 18.0122 14.0675 18.4289 13.6508C18.8456 13.2341 19.4107 13 20 13Z" fill="white"/>
<circle cx="20" cy="8" r="8" fill="white"/>
</svg>
