<svg width="200" height="176" viewBox="0 0 200 176" fill="none" xmlns="http://www.w3.org/2000/svg">
<path d="M156.953 156.069C156.953 166.928 131.797 175.678 100.781 175.678C69.7656 175.678 44.6094 166.85 44.6094 156.069C44.6094 145.209 69.7656 136.459 100.781 136.459C131.797 136.459 156.953 145.209 156.953 156.069Z" fill="#9EDCF2"/>
<path d="M156.953 156.069C156.953 166.928 131.797 175.678 100.781 175.678C69.7656 175.678 44.6094 166.85 44.6094 156.069C44.6094 145.209 69.7656 136.459 100.781 136.459C131.797 136.459 156.953 145.209 156.953 156.069Z" fill="#7DBCE7"/>
<path d="M36.6406 98.3345L35 103.959C35 103.959 34.6094 105.991 36.4844 106.381C38.5156 106.303 38.3594 104.428 38.2031 103.881L36.6406 98.3345Z" fill="#9EDCF2"/>
<path d="M199.844 74.6628L200 73.9597C183.516 70.6784 166.641 70.6003 156.406 71.069C158.047 65.0534 158.594 58.0222 158.594 50.2878C158.594 39.1159 154.375 30.2097 147.656 23.4909C148.828 19.6628 150.391 11.1472 146.094 0.287785C146.094 0.287785 138.437 -2.13409 121.016 9.50653C114.219 7.78778 106.953 6.92841 99.6875 6.92841C91.7187 6.92841 83.6719 7.94404 76.0938 9.97529C58.125 -2.29034 50.2344 0.20966 50.2344 0.20966C45.0781 13.1003 48.2812 22.7097 49.2188 25.0534C43.125 31.6159 39.4531 39.9753 39.4531 50.2097C39.4531 57.944 40.3125 64.8972 42.5 70.9128C32.1875 70.5222 15.9375 70.6784 0 73.8815L0.15625 74.5847C16.0937 71.3815 32.5 71.3034 42.7344 71.694C43.2031 72.944 43.75 74.194 44.2969 75.3659C34.1406 75.6784 16.875 77.0065 0.3125 81.694L0.546875 82.3972C17.2656 77.7097 34.6875 76.4597 44.7656 76.1472C50.8594 87.3972 62.7344 94.7409 83.9844 97.0065C80.9375 99.0378 77.8906 102.475 76.6406 108.335C72.5 110.288 59.5312 115.132 51.7187 101.694C51.7187 101.694 47.3438 93.7253 38.9844 93.1003C38.9844 93.1003 30.8594 92.944 38.4375 98.1784C38.4375 98.1784 43.8281 100.757 47.5781 110.366C47.5781 110.366 52.5 126.772 76.0156 121.46V138.257C76.0156 138.257 75.5469 144.272 70 146.225C70 146.225 66.7188 148.491 70.2344 149.741C70.2344 149.741 85.4688 150.991 85.4688 138.491V120.053C85.4688 120.053 84.8437 112.71 88.4375 110.21V140.522C88.4375 140.522 88.2031 147.788 84.4531 150.522C84.4531 150.522 81.9531 154.975 87.4219 153.803C87.4219 153.803 97.8906 152.319 98.3594 140.053L98.5937 109.35H101.094L101.328 140.053C101.797 152.241 112.266 153.803 112.266 153.803C117.734 155.053 115.234 150.522 115.234 150.522C111.484 147.788 111.25 140.522 111.25 140.522V110.444C114.844 113.257 114.219 120.053 114.219 120.053V138.491C114.219 150.991 129.453 149.741 129.453 149.741C132.969 148.491 129.688 146.225 129.688 146.225C124.219 144.194 123.672 138.257 123.672 138.257V114.038C123.672 104.585 119.687 99.5847 115.781 97.0065C138.437 94.7409 149.297 87.4753 154.297 76.069C164.219 76.3034 182.109 77.5534 199.141 82.3972L199.375 81.694C182.422 76.9284 164.687 75.6784 154.609 75.3659C155.078 74.194 155.469 73.0222 155.859 71.7722C166.328 71.3815 183.281 71.3815 199.844 74.6628V74.6628Z" fill="#010101"/>
<path d="M136.406 49.7412C141.25 54.1943 144.141 59.5068 144.141 65.2099C144.141 92.0849 124.141 92.7881 99.4531 92.7881C74.7656 92.7881 54.7656 89.0381 54.7656 65.2099C54.7656 59.5068 57.5781 54.1943 62.4219 49.8193C70.4688 42.4755 84.0625 46.3818 99.4531 46.3818C114.844 46.3818 128.359 42.3974 136.406 49.7412V49.7412Z" fill="#F5CCB3"/>
<path d="M84.6094 66.6162C84.6094 74.0381 80.4688 79.9756 75.3125 79.9756C70.1563 79.9756 66.0156 73.96 66.0156 66.6162C66.0156 59.1944 70.1563 53.2569 75.3125 53.2569C80.4688 53.1787 84.6094 59.1944 84.6094 66.6162V66.6162Z" fill="white"/>
<path d="M81.6406 66.772C81.6406 71.6939 78.8281 75.6782 75.4688 75.6782C72.0313 75.6782 69.2969 71.6939 69.2969 66.772C69.2969 61.8501 72.1094 57.8657 75.4688 57.8657C78.8281 57.8657 81.6406 61.8501 81.6406 66.772Z" fill="#AF5C51"/>
<path d="M134.531 66.6162C134.531 74.0381 130.391 79.9756 125.234 79.9756C120.078 79.9756 115.938 73.96 115.938 66.6162C115.938 59.1944 120.078 53.2569 125.234 53.2569C130.313 53.1787 134.531 59.1944 134.531 66.6162V66.6162Z" fill="white"/>
<path d="M131.484 66.772C131.484 71.6939 128.672 75.6782 125.312 75.6782C121.875 75.6782 119.141 71.6939 119.141 66.772C119.141 61.8501 121.953 57.8657 125.312 57.8657C128.75 57.8657 131.484 61.8501 131.484 66.772Z" fill="#AF5C51"/>
<path d="M101.953 78.4907C101.953 79.7407 100.938 80.8345 99.6094 80.8345C98.3594 80.8345 97.2656 79.8188 97.2656 78.4907C97.2656 77.1626 98.2812 76.147 99.6094 76.147C100.859 76.147 101.953 77.1626 101.953 78.4907Z" fill="#AF5C51"/>
<path d="M94.2188 84.3502C94.0625 83.9596 94.2969 83.569 94.6875 83.4127C95.0781 83.2565 95.4688 83.4908 95.625 83.8815C96.25 85.6002 97.8125 86.694 99.6094 86.694C101.406 86.694 102.969 85.5221 103.594 83.8815C103.75 83.4908 104.141 83.2565 104.531 83.4127C104.922 83.569 105.156 83.9596 105 84.3502C104.219 86.6158 102.031 88.1783 99.6094 88.1783C97.1875 88.1783 95 86.6158 94.2188 84.3502V84.3502Z" fill="#AF5C51"/>
<path d="M42.5781 94.9751C42.5781 95.6001 41.875 96.0689 40.9375 96.0689C40.0781 96.0689 39.2969 95.6001 39.2969 94.9751C39.2969 94.3501 40 93.8813 40.9375 93.8813C41.875 93.8813 42.5781 94.3501 42.5781 94.9751Z" fill="#C4E5D9"/>
<path d="M47.1094 97.4751C47.1094 98.1001 46.4063 98.5688 45.4688 98.5688C44.6094 98.5688 43.8281 98.1001 43.8281 97.4751C43.8281 96.8501 44.5313 96.3813 45.4688 96.3813C46.4063 96.3813 47.1094 96.8501 47.1094 97.4751Z" fill="#C4E5D9"/>
<path d="M49.8438 100.756C49.8438 101.381 49.1406 101.85 48.2031 101.85C47.3438 101.85 46.5625 101.381 46.5625 100.756C46.5625 100.131 47.2656 99.6627 48.2031 99.6627C49.1406 99.5846 49.8438 100.131 49.8438 100.756Z" fill="#C4E5D9"/>
<path d="M52.3438 104.506C52.3438 105.131 51.6406 105.6 50.7031 105.6C49.8438 105.6 49.0625 105.131 49.0625 104.506C49.0625 103.881 49.7656 103.413 50.7031 103.413C51.6406 103.335 52.3438 103.881 52.3438 104.506Z" fill="#C4E5D9"/>
<path d="M55.0781 107.944C55.0781 108.569 54.375 109.038 53.4375 109.038C52.5781 109.038 51.7969 108.569 51.7969 107.944C51.7969 107.319 52.5 106.851 53.4375 106.851C54.375 106.851 55.0781 107.319 55.0781 107.944Z" fill="#C4E5D9"/>
<path d="M58.8281 110.991C58.8281 111.616 58.125 112.085 57.1875 112.085C56.3281 112.085 55.5469 111.616 55.5469 110.991C55.5469 110.366 56.25 109.897 57.1875 109.897C58.125 109.819 58.8281 110.366 58.8281 110.991Z" fill="#C4E5D9"/>
<path d="M64.0625 112.944C64.0625 113.569 63.3594 114.038 62.4219 114.038C61.5625 114.038 60.7812 113.569 60.7812 112.944C60.7812 112.319 61.4844 111.85 62.4219 111.85C63.3594 111.85 64.0625 112.319 64.0625 112.944Z" fill="#C4E5D9"/>
<path d="M69.2969 112.944C69.2969 113.569 68.5937 114.038 67.6562 114.038C66.7969 114.038 66.0156 113.569 66.0156 112.944C66.0156 112.319 66.7187 111.85 67.6562 111.85C68.5937 111.85 69.2969 112.319 69.2969 112.944Z" fill="#C4E5D9"/>
<path d="M74.6094 112.084C74.6094 112.709 73.9062 113.178 72.9687 113.178C72.1094 113.178 71.3281 112.709 71.3281 112.084C71.3281 111.459 72.0312 110.991 72.9687 110.991C73.8281 110.991 74.6094 111.459 74.6094 112.084Z" fill="#C4E5D9"/>
</svg>
